<svg width="4408" height="1516" viewBox="0 0 4408 1516" fill="none" xmlns="http://www.w3.org/2000/svg">
<path d="M4345.75 1289.5C4318.88 1266.74 4285.87 1256.39 4263.37 1226.27C4215.24 1161.87 4240.84 1054.7 4245.2 963.611C4254.04 779.158 4143.98 598.469 4007.7 573.693C3976.53 568.026 3944.11 569.383 3914.77 554.151C3832.84 511.617 3814.46 370.555 3767.31 270.965C3708.15 145.992 3590.36 81.0607 3481.06 100.083C3371.76 119.106 3273.88 215.253 3217.19 342.28L3215.54 346.616C3141.46 442.432 3018.53 461.059 2930.44 389.818C2844.63 320.423 2799.7 185.661 2720.28 103.687C2643.06 24.0011 2538.86 2.11167 2442.71 22.5201C2346.55 42.9262 2257.17 101.884 2174.39 170.723C2136.22 202.463 2098.86 236.616 2057.69 260.664C1924.73 338.345 1757.48 293.507 1656.86 153.213C1632.87 119.755 1612.3 81.416 1584.83 53.1893C1514.79 -18.7896 1414.51 -9.71456 1332.3 33.1184C1250.09 75.9514 1177.88 147.586 1097.41 196.006C1016.93 244.425 919.93 267.45 842.534 210.685C793.435 174.676 757.04 109.945 704.609 83.7586C645.759 54.3683 575.757 82.7327 532.484 143.867C489.211 205.003 471.348 293.793 476.988 377.832C480.953 436.91 495.584 494.349 496.491 553.653C498.371 676.623 433.823 796.067 346.234 831.692C271.321 862.164 186.681 835.987 115.242 878.962C30.6368 929.857 -10.2127 1069.12 2.17795 1192.58C14.5686 1316.05 69.8738 1424.47 133.479 1515.1H4393.5C4424.46 1434.74 4402.72 1337.73 4345.75 1289.5Z" fill="#D9CEC4"/>
<path d="M2938.07 743.111C2947.65 743.111 2956.6 745.725 2964.32 750.215C2971.32 729.89 2990.56 715.263 3013.26 715.263C3016.97 715.263 3020.59 715.669 3024.07 716.411C3033.02 680.562 3065.42 654 3104.04 654C3142.34 654 3174.52 680.118 3183.78 715.512C3185.41 715.396 3187.04 715.263 3188.7 715.263C3201.29 715.263 3213.05 718.687 3223.22 724.574C3232.7 718.707 3243.84 715.263 3255.81 715.263C3290.1 715.263 3317.9 743.064 3317.9 777.361H3257.4H3193.71H3175.57H3132.01H3119.98H3108.68H3064.02H3032.51H2987.14H2985.78H2962.49H2889C2896.38 757.385 2915.54 743.111 2938.07 743.111Z" fill="#FCF1E6"/>
<path d="M805.303 601.706C817.853 601.706 829.576 605.697 839.695 612.552C848.864 581.52 858.665 552.678 888.411 552.678C893.273 552.678 909.905 506.661 947.249 527.273C966.248 534.144 953.8 496.737 983.376 466.2C1015.39 438.717 1061.9 453.986 1071.73 513.532C1073.86 513.356 1136.03 488.339 1153.75 520.615C1167.51 538.937 1165.61 564.415 1178.93 573.403C1191.36 564.446 1205.95 559.187 1221.63 559.187C1266.57 559.187 1303 601.635 1303 654H1223.72H1140.26H1116.5H1059.42H1043.66H1028.86H970.335H929.042H869.6H867.811H837.301H741C750.669 623.5 775.77 601.706 805.303 601.706Z" fill="#FCF1E6"/>
<path d="M2251.37 584.529H2187.31H2167.01H2165.82H2126.28H2098.8H2059.87H2050.02H2039.54H2001.56H1985.76H1930.23H1877.49C1877.49 554.634 1901.73 530.396 1931.63 530.396C1938.09 530.396 1944.26 531.589 1950.01 533.665C1960.66 524.114 1974.69 518.259 1990.13 518.259C1997.35 518.259 2004.24 519.598 2010.66 521.929C2017.63 513.769 2027.97 508.579 2039.54 508.579C2047.7 508.579 2055.24 511.175 2061.43 515.554C2072.81 499.015 2091.85 488.157 2113.44 488.157C2143.69 488.157 2168.93 509.441 2175.09 537.84C2183.43 528.804 2195.33 523.111 2208.6 523.111C2233.8 523.111 2254.24 543.542 2254.24 568.748C2254.23 574.306 2253.19 579.606 2251.37 584.529Z" fill="#FCF1E6"/>
</svg>
