<svg width="4408" height="1528" viewBox="0 0 4408 1528" fill="none" xmlns="http://www.w3.org/2000/svg">
<path d="M4345.75 1289.5C4318.88 1266.74 4285.87 1256.39 4263.37 1226.27C4215.24 1161.87 4240.84 1054.7 4245.2 963.611C4254.04 779.158 4143.98 598.469 4007.7 573.693C3976.53 568.026 3944.11 569.383 3914.77 554.151C3832.84 511.617 3814.46 370.555 3767.31 270.965C3708.15 145.992 3590.36 81.0607 3481.06 100.083C3371.76 119.106 3273.88 215.253 3217.19 342.28L3215.54 346.616C3141.46 442.432 3018.53 461.059 2930.44 389.818C2844.63 320.423 2799.7 185.661 2720.28 103.687C2643.06 24.0011 2538.86 2.11167 2442.71 22.5201C2346.55 42.9262 2257.17 101.884 2174.39 170.723C2136.22 202.463 2098.86 236.616 2057.69 260.664C1924.73 338.345 1757.48 293.507 1656.86 153.213C1632.87 119.755 1612.3 81.416 1584.83 53.1893C1514.79 -18.7896 1414.51 -9.71456 1332.3 33.1184C1250.09 75.9514 1177.88 147.586 1097.41 196.006C1016.93 244.425 919.93 267.45 842.534 210.685C793.435 174.676 757.04 109.945 704.609 83.7586C645.759 54.3683 575.757 82.7327 532.484 143.867C489.211 205.003 471.348 293.793 476.988 377.832C480.953 436.91 495.584 494.349 496.491 553.653C498.371 676.623 433.823 796.067 346.234 831.692C271.321 862.164 186.681 835.987 115.242 878.962C30.6368 929.857 -10.2127 1069.12 2.17793 1192.58C14.5686 1316.05 69.8737 1424.47 133.479 1515.1L4394 1528C4424.95 1447.64 4402.72 1337.73 4345.75 1289.5Z" fill="#EDF1F4"/>
<path d="M2938.07 743.111C2947.65 743.111 2956.6 745.725 2964.32 750.215C2971.32 729.89 2990.56 715.263 3013.26 715.263C3016.97 715.263 3020.59 715.669 3024.07 716.411C3033.02 680.562 3065.42 654 3104.04 654C3142.34 654 3174.52 680.118 3183.78 715.512C3185.41 715.396 3187.04 715.263 3188.7 715.263C3201.29 715.263 3213.05 718.687 3223.22 724.574C3232.7 718.707 3243.84 715.263 3255.81 715.263C3290.1 715.263 3317.9 743.064 3317.9 777.361H3257.4H3193.71H3175.57H3132.01H3119.98H3108.68H3064.02H3032.51H2987.14H2985.78H2962.49H2889C2896.38 757.385 2915.54 743.111 2938.07 743.111Z" fill="#DBE2F2"/>
<path d="M2251.37 584.529H2187.31H2167.01H2165.82H2126.28H2098.8H2059.87H2050.02H2039.54H2001.56H1985.76H1930.23H1877.49C1877.49 554.634 1901.73 530.396 1931.63 530.396C1938.09 530.396 1944.26 531.589 1950.01 533.665C1960.66 524.114 1974.69 518.259 1990.13 518.259C1997.35 518.259 2004.24 519.598 2010.66 521.929C2017.63 513.769 2027.97 508.579 2039.54 508.579C2047.7 508.579 2055.24 511.175 2061.43 515.554C2072.81 499.015 2091.85 488.157 2113.44 488.157C2143.69 488.157 2168.93 509.441 2175.09 537.84C2183.43 528.804 2195.33 523.111 2208.6 523.111C2233.8 523.111 2254.24 543.542 2254.24 568.748C2254.23 574.306 2253.19 579.606 2251.37 584.529Z" fill="white"/>
<path d="M1374.39 1347.49C1378.89 1339.87 1380.64 1330.1 1376.81 1322.11C1372.99 1314.13 1362.61 1309.25 1354.7 1313.23C1356.75 1290.25 1355.11 1266.96 1349.88 1244.49C1347 1232.15 1342.53 1219.29 1332.51 1211.53C1317.21 1199.67 1293.02 1204.89 1280.62 1219.76C1268.21 1234.63 1266.33 1256.21 1271.54 1274.86C1257.91 1271.08 1241.46 1271.71 1231.93 1282.17C1221.12 1294.02 1223.84 1312.47 1227.24 1328.15C1230.12 1341.44 1233.83 1356.03 1245.05 1363.71C1231.44 1365.27 1215.08 1368.97 1210.89 1382.01C1208.5 1389.44 1211.21 1397.64 1215.53 1404.14C1229.84 1425.7 1258.6 1432 1284.48 1432.64H1297.27C1304.43 1433.35 1311.53 1430.44 1317.99 1427.74C1324.69 1424.94 1331.65 1422.83 1338.42 1420.22C1349.12 1416.11 1360.56 1410.5 1365.63 1399.59C1371 1388.03 1367.39 1372.1 1355.98 1366.4C1362.96 1360.95 1369.88 1355.1 1374.39 1347.49Z" fill="#DAE3F2"/>
<path d="M1303.74 1513.11C1303.74 1465.71 1303.74 1418.32 1303.74 1370.93C1303.74 1357.47 1303.74 1344.01 1303.74 1330.55C1303.74 1322.87 1291.81 1322.86 1291.81 1330.55C1291.81 1377.94 1291.81 1425.33 1291.81 1472.72C1291.81 1486.18 1291.81 1499.64 1291.81 1513.11C1291.81 1520.78 1303.74 1520.79 1303.74 1513.11Z" fill="#F8F5FF"/>
<path d="M1304.75 1388.9C1317.81 1383.14 1327.86 1371.08 1331.67 1357.38C1332.5 1354.38 1330.63 1350.76 1327.5 1350.04C1324.34 1349.32 1321.06 1350.99 1320.16 1354.21C1319.75 1355.68 1319.25 1357.11 1318.72 1358.54C1318.21 1359.88 1319.27 1357.33 1318.68 1358.64C1318.51 1359.02 1318.34 1359.4 1318.16 1359.77C1317.86 1360.4 1317.54 1361.01 1317.22 1361.62C1316.49 1362.96 1315.7 1364.26 1314.84 1365.52C1314.6 1365.86 1314.37 1366.2 1314.12 1366.54C1313.92 1366.82 1313.29 1367.96 1314.05 1366.65C1313.69 1367.28 1313.07 1367.87 1312.6 1368.41C1311.6 1369.56 1310.53 1370.66 1309.42 1371.69C1308.86 1372.21 1308.29 1372.71 1307.71 1373.21C1307.41 1373.46 1307.09 1373.81 1306.74 1373.99C1307.31 1373.69 1307.45 1373.46 1306.79 1373.94C1304.28 1375.79 1301.58 1377.34 1298.72 1378.6C1295.86 1379.86 1294.97 1384.27 1296.58 1386.76C1298.49 1389.73 1301.68 1390.25 1304.75 1388.9Z" fill="#F8F5FF"/>
<path d="M1295.73 1404.61C1292.22 1403.78 1288.7 1402.93 1285.26 1401.8C1284.5 1401.55 1283.73 1401.28 1282.97 1400.99C1282.55 1400.84 1282.14 1400.67 1281.72 1400.5C1282.51 1400.83 1281.83 1400.54 1281.42 1400.35C1279.82 1399.62 1278.27 1398.78 1276.79 1397.82C1276.47 1397.6 1276.15 1397.37 1275.82 1397.15C1275.29 1396.78 1275.53 1396.91 1275.9 1397.22C1275.3 1396.71 1274.69 1396.21 1274.12 1395.67C1273.55 1395.12 1273 1394.55 1272.48 1393.96C1272.37 1393.84 1271.54 1392.81 1272.05 1393.47C1272.57 1394.13 1271.7 1392.95 1271.69 1392.94C1271.25 1392.3 1270.84 1391.63 1270.48 1390.95C1270.33 1390.67 1270.2 1390.39 1270.06 1390.12C1269.38 1388.77 1270.42 1391.27 1269.95 1389.84C1269.74 1389.18 1269.52 1388.52 1269.36 1387.85C1269.29 1387.52 1269.1 1387.06 1269.14 1386.72C1269.17 1386.94 1269.2 1387.16 1269.23 1387.38C1269.2 1387.07 1269.18 1386.76 1269.16 1386.45C1268.98 1383.34 1266.55 1380.34 1263.2 1380.49C1260.12 1380.62 1257.03 1383.12 1257.23 1386.45C1257.75 1395.18 1262.71 1402.26 1269.61 1407.31C1276.27 1412.19 1284.66 1414.24 1292.56 1416.12C1295.59 1416.84 1299.16 1415.17 1299.9 1411.95C1300.59 1408.89 1298.98 1405.39 1295.73 1404.61Z" fill="#F8F5FF"/>
<path d="M1582.47 1314.79C1581.6 1305.55 1572.11 1296.89 1562.41 1298.99C1557.09 1300.14 1550.44 1303.76 1547.14 1299.72C1557.65 1289.9 1568.41 1279.75 1574.34 1267.03C1580.27 1254.3 1580.33 1238.22 1570.56 1227.87C1560.78 1217.52 1539.98 1217.03 1532.41 1228.98C1538.41 1205.82 1538.33 1181.34 1532.16 1158.29C1529.08 1146.77 1524.19 1135.16 1514.76 1127.22C1505.33 1119.28 1490.45 1116.04 1479.56 1122.28C1473.33 1125.85 1469.21 1131.92 1466.2 1138.14C1456 1159.22 1456.37 1183.25 1458 1206.27C1450.51 1196.96 1433.22 1199.67 1425.89 1209.18C1418.56 1218.68 1419.23 1231.74 1423.1 1242.82C1426.97 1253.9 1433.61 1263.98 1437.59 1275.02C1431.51 1268.97 1419.63 1271.9 1414.65 1278.83C1409.66 1285.76 1409.9 1294.82 1411.43 1303.02C1415.17 1323.13 1425.71 1342.06 1441.16 1356.45C1433.9 1349.89 1420.76 1352.73 1414.47 1360.19C1408.18 1367.64 1407.32 1377.9 1408.39 1387.31C1412.52 1423.74 1438.92 1458.58 1501.26 1455.4C1525.54 1452.65 1549.34 1439.88 1560.5 1419.51C1571.66 1399.13 1567.39 1371.35 1547.98 1357.58C1555.23 1351.18 1563.74 1346.11 1570.75 1339.49C1577.75 1332.87 1583.33 1324.03 1582.47 1314.79Z" fill="#DAE3F2"/>
<path d="M1494.47 1514.12C1494.47 1440.7 1494.47 1367.27 1494.47 1293.84C1494.47 1273.18 1494.47 1252.52 1494.47 1231.85C1494.47 1224.18 1482.54 1224.16 1482.54 1231.85C1482.54 1305.28 1482.54 1378.71 1482.54 1452.13C1482.54 1472.8 1482.54 1493.46 1482.54 1514.12C1482.53 1521.8 1494.47 1521.82 1494.47 1514.12Z" fill="#F8F5FF"/>
<path d="M1493.02 1341.53C1514.96 1333.86 1532.33 1315.32 1538.06 1292.72C1538.85 1289.59 1537.05 1286.24 1533.89 1285.38C1530.83 1284.53 1527.35 1286.41 1526.56 1289.54C1524.21 1298.79 1519.57 1307.39 1513.22 1314.33C1511.6 1316.11 1509.87 1317.79 1508.06 1319.38C1506 1321.19 1504.83 1322.08 1502.5 1323.64C1498.33 1326.41 1494.03 1328.56 1489.85 1330.02C1486.81 1331.08 1484.79 1334.1 1485.68 1337.36C1486.49 1340.31 1489.97 1342.6 1493.02 1341.53Z" fill="#F8F5FF"/>
<path d="M1483.92 1388.19C1475.74 1386.97 1469.78 1380.37 1465.81 1373.35C1461.66 1366.02 1459.99 1357.97 1460.63 1349.47C1460.87 1346.25 1457.71 1343.5 1454.66 1343.5C1451.23 1343.5 1448.94 1346.24 1448.69 1349.47C1447.9 1360.03 1450.51 1370.86 1455.86 1379.99C1461.16 1389.04 1469.91 1398.08 1480.74 1399.7C1483.92 1400.17 1487.15 1398.9 1488.08 1395.53C1488.85 1392.71 1487.12 1388.66 1483.92 1388.19Z" fill="#F8F5FF"/>
<path d="M1492.33 1269.03C1489.66 1266.86 1487.12 1264.54 1484.73 1262.06C1483.51 1260.78 1482.32 1259.47 1481.18 1258.12C1480.64 1257.48 1480.11 1256.84 1479.59 1256.18C1479.36 1255.89 1478.82 1255.18 1479.32 1255.85C1479.04 1255.48 1478.76 1255.11 1478.49 1254.73C1476.46 1251.95 1474.59 1249.05 1472.92 1246.05C1472.1 1244.59 1471.33 1243.1 1470.61 1241.59C1470.21 1240.75 1469.82 1239.91 1469.45 1239.06C1469.27 1238.66 1469.15 1238.37 1469.39 1238.95C1469.18 1238.43 1468.97 1237.91 1468.77 1237.39C1467.63 1234.5 1464.72 1232.16 1461.43 1233.23C1458.62 1234.13 1456.03 1237.46 1457.26 1240.57C1462.92 1254.89 1471.91 1267.72 1483.9 1277.46C1486.31 1279.43 1490 1280 1492.33 1277.46C1494.33 1275.28 1494.92 1271.13 1492.33 1269.03Z" fill="#F8F5FF"/>
<path d="M3072.16 1385.5C3070.19 1369.6 3056.77 1354.04 3040.8 1355.39C3053.88 1343.78 3061.77 1326.52 3062 1309.02C3062.14 1298.59 3059.18 1287.39 3051.02 1280.88C3044.04 1275.32 3032.74 1275.1 3026.47 1280.88C3037.1 1266.52 3041.03 1247.33 3036.64 1229.99C3031.9 1211.24 3017.6 1195.17 2999.52 1188.3C2989.34 1184.42 2977.55 1183.46 2967.72 1188.16C2957.3 1193.15 2950.57 1203.69 2946.68 1214.57C2939.35 1235.1 2940.4 1257.54 2941.54 1279.31C2929.28 1276.96 2916.18 1279.33 2905.52 1285.83C2901.67 1288.18 2897.8 1291.12 2896.45 1295.6C2895.59 1298.45 2895.55 1301.47 2895.59 1304.45C2895.74 1316.77 2896.89 1329.33 2899.72 1341.35C2901.02 1346.83 2902.77 1352.23 2905.2 1357.32C2906.49 1360.01 2911.26 1370.71 2914.51 1371.22C2904.29 1369.63 2894.37 1377.18 2890.02 1386.56C2885.67 1395.94 2885.7 1406.71 2886.27 1417.04C2887.21 1433.97 2890.11 1452.34 2902.53 1463.88C2915.95 1476.36 2935.25 1477.38 2952.45 1479.56C2971.71 1482 2991.63 1481.52 3010.15 1475.25C3032.96 1467.52 3050.66 1452.72 3061.06 1431.06C3067.81 1417 3074.14 1401.41 3072.16 1385.5Z" fill="#DAE3F2"/>
<path d="M2985.72 1488.61C2985.72 1443.62 2985.72 1398.63 2985.72 1353.64C2985.72 1343.92 2970.61 1343.91 2970.61 1353.64C2970.61 1398.63 2970.61 1443.62 2970.61 1488.61C2970.61 1498.33 2985.72 1498.34 2985.72 1488.61Z" fill="#F8F5FF"/>
<path d="M2985.06 1441.73C3001.76 1439 3017.51 1430.47 3029.13 1418.2C3031.84 1415.33 3032.19 1410.33 3029.13 1407.52C3026.18 1404.81 3021.35 1404.45 3018.44 1407.52C3017.16 1408.88 3015.83 1410.2 3014.44 1411.45C3013.7 1412.12 3012.96 1412.77 3012.19 1413.41C3011.85 1413.69 3011.51 1413.96 3011.17 1414.24C3010.66 1414.66 3010.55 1414.72 3011.13 1414.28C3008.03 1416.59 3004.8 1418.68 3001.39 1420.49C2999.73 1421.37 2998.04 1422.16 2996.33 1422.93C2996.99 1422.63 2996.95 1422.68 2996.3 1422.94C2995.89 1423.1 2995.48 1423.26 2995.07 1423.42C2994.14 1423.77 2993.21 1424.1 2992.27 1424.42C2988.61 1425.64 2984.85 1426.54 2981.05 1427.17C2977.14 1427.81 2974.61 1432.86 2975.77 1436.46C2977.14 1440.69 2980.87 1442.42 2985.06 1441.73Z" fill="#F8F5FF"/>
<path d="M2974.37 1401.66C2974.32 1401.67 2972.48 1402.07 2973.66 1401.84C2974.8 1401.62 2973.2 1401.87 2972.94 1401.88C2971.98 1401.93 2971.03 1401.89 2970.07 1401.83C2968.76 1401.74 2970.37 1401.82 2970.36 1401.88C2970.36 1401.89 2969.09 1401.63 2968.94 1401.6C2968 1401.38 2967.06 1401.11 2966.15 1400.78C2965.59 1400.58 2964.65 1400.62 2966.04 1400.78C2965.72 1400.75 2965.27 1400.43 2964.98 1400.29C2964.09 1399.85 2963.23 1399.37 2962.39 1398.86C2961.57 1398.35 2960.67 1397.82 2959.95 1397.19C2960.7 1397.84 2960.47 1397.59 2959.87 1397.07C2959.5 1396.76 2959.13 1396.43 2958.77 1396.1C2957.32 1394.73 2956.06 1393.22 2954.74 1391.73C2953.98 1390.87 2955.75 1393.13 2954.58 1391.53C2954.27 1391.11 2953.96 1390.68 2953.66 1390.26C2953.12 1389.49 2952.59 1388.7 2952.08 1387.91C2949.81 1384.37 2947.82 1380.66 2945.84 1376.94C2943.98 1373.45 2938.85 1372.08 2935.51 1374.23C2931.96 1376.52 2930.81 1380.83 2932.8 1384.57C2937.26 1392.94 2942.04 1401.74 2949.41 1407.95C2957.52 1414.78 2967.79 1418.56 2978.39 1416.23C2982.25 1415.38 2984.87 1410.68 2983.66 1406.94C2982.35 1402.87 2978.51 1400.75 2974.37 1401.66Z" fill="#F8F5FF"/>
<path d="M1273.67 1516.36C1269.34 1511.67 1268.93 1503.85 1272.75 1498.73C1276.56 1493.62 1284.17 1491.77 1289.9 1494.58C1288.7 1489.68 1289.68 1483.94 1293.52 1480.66C1297.35 1477.39 1304.23 1477.87 1306.62 1482.31C1305.49 1476.7 1307.48 1470.33 1312.19 1467.07C1316.9 1463.81 1324.21 1464.55 1327.55 1469.2C1327.64 1462.47 1327.93 1455.17 1332.22 1449.97C1336.5 1444.78 1346.32 1444.02 1349.1 1450.15C1351.7 1444.09 1358.18 1439.91 1364.78 1440.05C1371.38 1440.19 1377.68 1444.65 1380.01 1450.82C1385.94 1444.37 1395.51 1441.51 1404.01 1443.68C1412.5 1445.84 1419.55 1452.91 1421.67 1461.42C1422.11 1463.14 1422.71 1465.3 1424.46 1465.61C1425.29 1465.75 1426.12 1465.39 1426.93 1465.15C1432.05 1463.6 1437.66 1466.69 1440.71 1471.09C1443.76 1475.48 1444.83 1480.92 1445.83 1486.17C1451.79 1480.96 1463 1485.56 1463.57 1493.46C1467.43 1490.76 1472.43 1487.97 1476.56 1490.26C1478.34 1491.25 1479.55 1493.04 1481.27 1494.15C1482.98 1495.26 1485.78 1495.3 1486.59 1493.43C1489.17 1497.46 1490.83 1502.07 1491.41 1506.81C1496.15 1503.19 1503.06 1502.68 1508.27 1505.58C1513.49 1508.48 1516.71 1514.61 1516.14 1520.55L1273.67 1516.36Z" fill="url(#paint0_linear_4_2658)"/>
<defs>
<linearGradient id="paint0_linear_4_2658" x1="1429.94" y1="1537.4" x2="1267.33" y2="1426.95" gradientUnits="userSpaceOnUse">
<stop stop-color="#AEC9E8"/>
<stop offset="0.2148" stop-color="#B5CDE9"/>
<stop offset="0.5259" stop-color="#C8D9EC"/>
<stop offset="0.8942" stop-color="#E8ECF0"/>
<stop offset="1" stop-color="#F2F2F2"/>
</linearGradient>
</defs>
</svg>
