<svg width="744" height="905" viewBox="0 0 744 905" fill="none" xmlns="http://www.w3.org/2000/svg">
<path d="M703.825 35.3691H39.5652V870.95H703.825V35.3691Z" fill="#CDE0FB"/>
<path d="M712.589 414.87H30.8025V441.675H712.589V414.87Z" fill="#AFCDFB"/>
<path opacity="0.5" d="M610.435 151.957H428.98V372.255H610.435V151.957Z" fill="white"/>
<path d="M606.007 156.002H433.409V368.212H606.007V156.002Z" fill="#DFEBFD"/>
<path d="M474.448 153.85V214.288C474.448 214.817 474.441 215.337 474.429 215.842C474.317 220.556 473.709 224.179 472.978 224.179H472.77C472.092 224.179 471.52 221.06 471.352 216.848C471.338 216.501 471.326 216.147 471.318 215.785C471.318 215.76 471.316 215.736 471.316 215.709C471.306 215.246 471.302 214.771 471.302 214.289V153.573C472.362 153.641 473.41 153.734 474.448 153.85Z" fill="#AFCDFB"/>
<path d="M472.056 216.54C460.598 216.54 451.309 225.511 451.309 236.576H492.804C492.804 225.51 483.515 216.54 472.056 216.54Z" fill="#AFCDFB"/>
<path d="M473.71 216.783C473.113 216.664 472.505 216.602 471.887 216.602C464.422 216.602 458.369 225.545 458.369 236.576H462.014C462.014 226.458 467.106 218.098 473.71 216.783Z" fill="#CDE0FB"/>
<path d="M468.564 303.096C468.564 303.096 458.346 292.209 467.934 285.293C467.934 285.293 474.937 281.42 480.648 281.735C480.648 281.735 472.556 294.127 475.174 295.36C477.792 296.593 483.101 280.958 483.101 280.958C483.101 280.958 499.038 279.546 504.165 281.797C504.165 281.797 490.54 291.981 493.41 292.587C496.279 293.193 510.995 283.198 510.995 283.198C510.995 283.198 525.829 285.503 525.038 293.768C524.247 302.032 519.136 304.584 516.889 304.365C514.643 304.145 501.502 299.563 501.216 301.245C500.93 302.926 508.84 308.42 514.379 308.676C514.379 308.676 503.921 319.209 496.971 316.17C490.021 313.13 489.428 308.311 485.095 306.504C480.762 304.696 477.064 304.701 478.853 306.544C480.641 308.387 488.482 310.179 490.96 314.182C493.438 318.185 495.66 320.884 488.47 319.896C481.279 318.908 469.59 314.102 469.077 308.599C468.564 303.096 468.564 303.096 468.564 303.096Z" fill="#82B378"/>
<path d="M517.749 293.991C517.749 293.991 477.462 292.573 468.564 303.097C468.564 303.097 466.596 308.479 460.542 313.38L459.598 315.729C459.598 315.729 466.58 309.006 469.078 308.6C469.078 308.6 465.17 295.562 517.749 293.991Z" fill="#82B378"/>
<path d="M460.542 313.38C460.542 313.38 451.895 319.221 451.293 329.657L452.863 329.786C452.863 329.786 455.625 318.994 460.617 314.774C465.609 310.554 460.542 313.38 460.542 313.38Z" fill="#82B378"/>
<path d="M442.33 304.403C442.33 304.403 442.33 304.403 440.106 308.754C440.007 308.951 439.902 309.16 439.791 309.375C439.784 309.38 439.784 309.386 439.784 309.386C438.826 311.265 436.417 312.552 433.408 313.353V277.665C435.589 278.528 437.06 279.172 437.06 279.172C437.06 279.172 436.151 295.441 439.061 295.108C441.965 294.775 439.061 280.667 439.061 280.667C444.511 282.163 449.603 287.97 449.603 287.97C455.961 297.433 442.33 304.403 442.33 304.403Z" fill="#A8D29F"/>
<path d="M445.97 316.525V319.014C445.97 319.014 445.921 318.912 445.834 318.731C445.828 318.72 445.828 318.715 445.821 318.709C445.71 318.455 445.587 318.218 445.463 317.981C445.438 317.924 445.407 317.862 445.376 317.8C445.352 317.755 445.326 317.716 445.309 317.67C445.067 317.191 444.765 316.61 444.431 315.978C444.425 315.966 444.425 315.961 444.418 315.955C443.053 313.404 441.094 310.086 439.784 309.386C439.784 309.386 439.784 309.381 439.791 309.375C439.822 309.335 439.969 309.121 440.106 308.754C440.65 307.287 441.051 303.28 433.408 297.219V295.058C437.814 297.97 441.199 301.141 442.33 304.403C442.33 304.403 442.151 310.035 445.957 316.508C445.964 316.519 445.97 316.525 445.97 316.525Z" fill="#82B378"/>
<path d="M445.967 316.522C445.967 316.522 451.853 324.686 448.498 334.623L446.984 334.251C446.984 334.251 448.454 323.306 445.375 317.801C442.294 312.296 445.967 316.522 445.967 316.522Z" fill="#82B378"/>
<path d="M458.65 286.648C458.65 286.648 440.682 277.458 449.067 264.985C449.067 264.985 455.775 257.326 462.963 255.357C462.963 255.357 459.129 273.956 462.963 274.393C466.795 274.831 465.598 253.387 465.598 253.387C465.598 253.387 484.525 245.072 491.951 245.729C491.951 245.729 480.212 263.89 484.045 263.453C487.878 263.015 501.055 244.634 501.055 244.634C501.055 244.634 520.461 241.352 523.575 251.855C526.69 262.358 521.658 267.609 518.784 268.266C515.909 268.923 497.461 268.704 497.941 270.892C498.42 273.08 510.878 276.581 517.826 274.612C517.826 274.612 510.16 291.898 500.097 291.023C490.035 290.148 486.92 284.459 480.692 284.021C474.463 283.583 469.911 285.115 473.026 286.647C476.14 288.179 486.681 287.149 491.712 291.056C496.743 294.962 500.816 297.369 491.472 299.119C482.129 300.87 465.358 299.776 462.004 293.211C458.651 286.647 458.65 286.648 458.65 286.648Z" fill="#A8D29F"/>
<path d="M514.711 255.138C514.711 255.138 464.4 270.017 458.65 286.647C458.65 286.647 458.89 294.087 453.859 302.621V305.903C453.859 305.903 459.129 294.744 462.004 293.212C462.004 293.212 450.744 278.77 514.711 255.138Z" fill="#82B378"/>
<path d="M453.859 302.621C453.859 302.621 446.099 313.382 450.523 326.481L452.519 325.991C452.519 325.991 450.581 311.563 454.641 304.307C458.7 297.051 453.859 302.621 453.859 302.621Z" fill="#82B378"/>
<path d="M567.223 334.513C567.223 334.513 593.818 235.554 595.738 227.237C596.592 223.53 599.228 222.191 601.884 221.846C597.21 221.409 593.808 221.377 593.808 221.377C584.606 221.377 576.428 227.392 573.475 236.333C567.035 255.832 542.077 288.475 530.062 325.101C530.671 325.086 567.223 334.513 567.223 334.513Z" fill="#F99746"/>
<path d="M433.409 368.212V349.662C438.234 341.152 443.109 333.449 447.323 327.411C447.972 326.485 448.602 325.599 449.215 324.758V324.753C449.412 324.476 449.61 324.211 449.807 323.946V323.94C450.611 322.84 451.383 321.818 452.112 320.887C452.112 320.881 452.112 320.881 452.112 320.881C453.236 319.448 454.262 318.212 455.164 317.208C456.431 315.797 458.061 314.674 459.971 313.805C459.978 313.799 459.978 313.799 459.978 313.799C460.138 313.726 460.299 313.652 460.459 313.585C461.176 313.28 461.929 313.009 462.714 312.766C462.794 312.738 462.881 312.715 462.961 312.687H462.967C465.173 312.027 467.632 311.604 470.258 311.372H470.265C475.999 310.864 482.548 311.265 489.023 312.117H489.03C489.858 312.224 490.686 312.337 491.507 312.461C495.098 312.992 498.638 313.647 501.962 314.346C501.975 314.346 501.987 314.352 502 314.352C503.217 314.606 504.403 314.866 505.552 315.125C505.639 315.148 505.725 315.165 505.812 315.187H505.818C506.22 315.278 506.621 315.373 507.017 315.464C508.802 315.881 510.495 316.299 512.058 316.7C518.559 318.37 522.871 319.77 522.871 319.77L522.896 320.571L522.977 323.562L523.019 325.029L523.137 329.341L523.143 329.527L523.156 330.125L523.261 333.872L523.273 334.183L524.213 368.212H433.409Z" fill="#F99746"/>
<path d="M558.825 332.924C558.27 332.676 557.448 332.303 556.385 331.835H556.378C556.174 331.745 555.964 331.654 555.748 331.564L555.741 331.558C555.167 331.31 554.53 331.034 553.838 330.74C552.992 330.379 552.065 329.984 551.065 329.572C549.687 328.996 548.172 328.376 546.542 327.727C546.066 327.535 545.584 327.343 545.084 327.145H545.077C544.608 326.959 544.132 326.773 543.644 326.587C543.638 326.587 543.638 326.581 543.632 326.581C541.735 325.847 539.714 325.08 537.601 324.312C537.594 324.312 537.594 324.307 537.594 324.307C535.624 323.584 533.566 322.851 531.44 322.134L531.106 322.016C525.206 320.012 518.848 318.077 512.508 316.525C510.519 316.039 508.535 315.588 506.564 315.193C506.558 315.193 506.558 315.193 506.558 315.193C506.292 315.136 506.021 315.08 505.755 315.029H505.749C505.73 315.024 505.723 315.018 505.705 315.018H505.699C504.457 314.77 503.221 314.55 501.998 314.352C501.985 314.352 501.973 314.346 501.96 314.346C498.649 313.799 495.423 313.421 492.352 313.257C491.618 313.218 490.894 313.189 490.184 313.178C484.536 313.06 479.507 313.748 475.577 315.571C472.895 316.818 470.726 318.596 469.225 321.005C467.68 323.488 465.592 327.461 463.232 332.484C458.863 341.773 453.55 354.634 449.002 368.212H556.179L556.451 365.446C556.457 365.441 556.457 365.441 556.457 365.435L556.995 359.972L559.627 333.376L559.633 333.297C559.635 333.297 559.357 333.167 558.825 332.924Z" fill="#DB6F26"/>
<path d="M606.007 221.746V368.212H599.785C595.361 367.642 590.955 367.021 586.667 366.349H586.661C579.351 365.204 572.407 363.917 566.363 362.506C564.584 362.089 562.878 361.665 561.272 361.225C560.302 360.96 559.363 360.695 558.467 360.424C557.967 360.277 557.472 360.125 556.996 359.972C550.255 357.822 545.881 355.463 545.343 352.946C544.855 350.65 546.06 345.181 548.371 337.755C548.365 337.749 548.371 337.749 548.377 337.743C548.785 336.4 549.242 334.984 549.73 333.511C549.952 332.839 550.187 332.151 550.422 331.445C550.514 331.18 550.608 330.909 550.7 330.639L550.811 330.3C550.898 330.057 550.984 329.815 551.065 329.572C551.09 329.51 551.107 329.448 551.127 329.391V329.386C551.676 327.811 552.246 326.197 552.844 324.532C553.703 322.168 554.605 319.713 555.557 317.196C556.786 313.906 558.096 310.509 559.456 307.038C559.852 306.028 560.246 305.018 560.649 303.997C562.076 300.385 563.546 296.722 565.036 293.049C568.867 283.607 572.839 274.121 576.529 265.447C577.641 262.84 578.722 260.306 579.773 257.868C579.773 257.863 579.773 257.857 579.779 257.857C580.502 256.158 581.212 254.511 581.904 252.919C583.919 248.246 585.345 243.766 586.68 239.719V239.714C588.67 233.664 590.461 228.608 593.712 225.414C595.608 223.551 598 222.327 601.219 221.904C601.41 221.881 601.602 221.858 601.799 221.842C601.805 221.842 601.805 221.842 601.812 221.842H601.824C602.449 221.779 603.098 221.746 603.777 221.746H606.007Z" fill="#FFA969"/>
<path d="M586.667 366.349H586.661L575.861 333.844L575.682 333.313C575.682 333.313 574.471 333.2 572.284 333.02C571.054 332.918 569.521 332.794 567.724 332.653C564.863 332.433 561.328 332.168 557.3 331.891H557.294C557.176 331.886 557.065 331.88 556.947 331.869H556.941C556.762 331.857 556.57 331.846 556.385 331.835H556.379C555.625 331.778 554.853 331.728 554.062 331.677H554.055C553.697 331.654 553.339 331.632 552.974 331.609C552.139 331.553 551.287 331.502 550.422 331.445C544.336 331.067 537.509 330.695 530.366 330.396C528.611 330.322 526.831 330.255 525.04 330.187C524.415 330.164 523.785 330.147 523.155 330.125C518.886 329.984 514.554 329.871 510.247 329.809H510.241C504.402 329.724 498.606 329.724 493.057 329.837H493.051C492.612 329.848 492.18 329.86 491.741 329.871C488.985 329.939 486.297 330.035 483.702 330.17C478.772 330.418 474.181 330.796 470.103 331.327C467.607 331.654 465.301 332.038 463.232 332.484C458.524 333.5 455.027 334.854 453.235 336.615C449.335 340.446 446.505 352.715 444.455 368.211H587.283L586.667 366.349Z" fill="#FFA969"/>
<path d="M546.751 269.866C546.751 269.866 540.629 271.861 535.807 280.797C530.986 289.733 528.99 313.791 526.601 314.02C524.213 314.25 506.075 311.027 506.075 311.027L506.495 315.155C506.495 315.155 525.362 326.622 529.303 324.56C533.244 322.498 544.126 294.707 544.831 290.501C545.536 286.296 546.751 269.866 546.751 269.866Z" fill="#FFB27D"/>
<path d="M588.887 266.763C588.887 266.763 564.351 262.008 546.751 269.867C546.751 269.867 535.468 292.056 535.815 295.818C536.162 299.58 540.083 315.26 536.529 321.18C532.974 327.1 569.172 337.617 575.692 333.954C582.212 330.291 589.955 270.841 588.887 266.763Z" fill="white"/>
<path d="M500.844 356.468C499.188 359.973 496.988 363.951 494.517 368.212H461.157C464.982 349.978 468.399 337.292 470.104 331.327C470.833 328.776 471.247 327.456 471.247 327.456C472.872 324.832 474.825 323.382 476.95 322.812C476.956 322.806 476.969 322.806 476.981 322.8C481.467 321.621 486.731 324.363 491.421 328.37C491.971 328.844 492.521 329.335 493.052 329.837H493.058C494.832 331.513 496.494 333.336 497.959 335.142C501.314 339.267 503.636 343.319 503.958 345.385C504.347 347.862 503.093 351.728 500.844 356.468Z" fill="#163560"/>
<path d="M476.735 322.91C476.735 322.91 484.242 318.981 501.298 322.362C518.354 325.743 532.309 333.837 532.309 333.837L488.813 335.486L476.735 322.91Z" fill="#163560"/>
<path d="M582.092 266.706C582.092 266.706 592.974 264.886 594.488 272.978C596 281.069 594.664 329.929 586.329 332.391C577.995 334.853 543.8 321.111 543.8 321.111L544.831 315.894C544.831 315.894 577.543 319.962 578.724 319.512C579.905 319.061 582.092 266.706 582.092 266.706Z" fill="#FFB27D"/>
<path d="M497.957 303.532L496.406 290.502L516.582 314.783C516.582 314.783 508.135 318.626 507.639 317.891C507.143 317.155 497.957 303.532 497.957 303.532Z" fill="#B5453C"/>
<path d="M528.15 303.532L546.787 329.525H515.484L497.957 303.532H528.15Z" fill="#B5453C"/>
<path d="M497.957 303.532L496.494 290.627L507.039 302.676L497.957 303.532Z" fill="white"/>
<path d="M545.831 328.191L547.26 327.257L528.74 302.12L528.15 303.532L545.831 328.191Z" fill="#EFDECE"/>
<path d="M528.74 302.12L499.251 302.876L497.957 303.532H528.15L528.74 302.12Z" fill="#FCECDB"/>
<path d="M538.627 368.212H505.261C503.643 364.013 502.172 360.085 500.844 356.468C497.483 347.292 495.03 340.069 493.473 335.311C492.644 332.772 492.064 330.932 491.742 329.871C491.52 329.172 491.415 328.81 491.415 328.81C491.415 328.664 491.415 328.517 491.421 328.37C491.471 324.984 492.744 322.733 494.801 321.35C494.906 321.277 495.018 321.209 495.129 321.141C495.129 321.141 495.129 321.141 495.135 321.136C498.521 319.087 503.81 319.177 509.266 320.306H509.272C514.148 321.316 519.146 323.15 523.02 325.029C526.165 326.553 528.563 328.105 529.563 329.256C529.637 329.341 529.711 329.431 529.786 329.527C529.977 329.781 530.175 330.074 530.366 330.396C530.867 331.237 531.355 332.304 531.83 333.568C531.856 333.63 531.88 333.692 531.898 333.754C531.911 333.788 531.923 333.822 531.936 333.85C533.814 338.974 535.495 347.134 536.953 356.423V356.429C537.552 360.21 538.108 364.183 538.627 368.212Z" fill="#1C468A"/>
<path d="M495.13 321.144C495.13 321.144 508.044 310.556 560.748 333.357L517.466 333.953L495.13 321.144Z" fill="#1C468A"/>
<path d="M544.831 315.895C544.831 315.895 540.036 312.961 538.268 312.734C536.196 312.468 533.962 310.084 534.185 311.443C534.407 312.802 536.701 314.555 537.336 315.124C537.97 315.693 533.746 315.596 532.049 314.843C531.252 314.49 527.004 313.482 527.035 314.879C527.053 315.714 528.718 319.738 532.909 320.603C534.845 321.002 544.152 321.241 544.152 321.241L544.831 315.895Z" fill="#FFB27D"/>
<path d="M566.71 244.02C566.71 244.02 575.855 248.591 568.807 257.724C568.807 257.724 576.752 258.77 578.822 256.729C578.822 256.729 578.491 257.638 578.125 258.075C578.125 258.075 585.876 257.349 588.725 254.747C591.574 252.146 584.044 216.366 563.25 223.113C563.25 223.113 544.916 224.165 549.524 243.125C554.133 262.084 547.283 262.955 547.283 262.955C547.283 262.955 549.319 263.571 550.239 263.454C550.239 263.454 551.512 262.815 551.673 262.102C551.673 262.102 551.57 263.202 551.277 263.585C551.277 263.585 558.768 263.286 562.073 260.268C565.377 257.25 568.366 247.842 566.71 244.02Z" fill="#233862"/>
<path d="M569.94 253.556C569.94 253.556 574.915 247.148 576.345 241.533C577.365 237.525 582.898 221.045 566.271 222.411C566.271 222.411 554.527 223.984 549.861 226.547C546.151 228.585 540.705 233.108 545.732 246.475L546.979 250.969L569.94 253.556Z" fill="#233862"/>
<path d="M559.228 272.8C560.463 273.625 565.89 274.643 570.234 272.679C574.321 270.835 576.19 266.835 575.578 265.202C574.963 263.561 573.071 263.013 571.004 253.146L570.209 253.442L556.851 258.432C556.851 258.432 558.02 262.37 558.833 266.131C559.517 269.288 558.508 272.32 559.228 272.8Z" fill="#FFB27D"/>
<path d="M556.851 258.432C556.851 258.432 558.02 262.37 558.833 266.13C566.566 264.545 569.292 257.334 570.209 253.442L556.851 258.432Z" fill="#ED975D"/>
<path d="M555.014 262.457C555.014 262.457 573.472 259.455 571.248 248.986C569.024 238.518 569.909 231.079 558.031 232.553C546.152 234.027 544.718 238.426 544.529 242.085C544.342 245.744 550.156 262.968 555.014 262.457Z" fill="#FFB27D"/>
<path d="M550.037 230.074C550.037 230.074 559.119 244.062 568.071 244.994C577.022 245.927 579.089 242.361 579.089 242.361C579.089 242.361 571.727 238.393 569.073 230.172C569.073 230.172 553.291 223 550.037 230.074Z" fill="#233862"/>
<path d="M551.603 231.011C551.603 231.011 547.864 234.61 547.292 237.72C546.72 240.83 547.193 247.023 545.203 247.063C545.203 247.063 539.54 238.27 543.505 232.387C547.709 226.148 551.603 231.011 551.603 231.011Z" fill="#233862"/>
<path d="M550.892 231.574C550.892 231.574 557.092 245.441 568.698 248.661C568.698 248.661 556.449 241.213 554.078 231.84C551.708 222.468 550.892 231.574 550.892 231.574Z" fill="#233862"/>
<path d="M588.725 254.746C585.877 257.348 578.126 258.075 578.126 258.075C578.493 257.639 578.821 256.728 578.821 256.728C574.761 259.564 565.08 257.179 565.08 257.179C572.904 255.811 570.703 245.498 568.072 244.993C566.769 237.225 564.01 227.524 562.711 223.166C563.057 223.123 563.253 223.112 563.253 223.112C584.042 216.365 591.574 252.146 588.725 254.746Z" fill="#233862"/>
<path d="M578.542 265.846C578.542 265.846 590.536 266.012 593.688 268.378C596.839 270.744 598.298 304.564 598.298 304.564C598.298 304.564 592.613 303.172 587.514 304.243C582.414 305.314 575.692 304.243 575.692 304.243L578.542 265.846Z" fill="white"/>
<path d="M558.276 266.458C558.276 266.458 543.155 269.226 539.704 272.892C536.254 276.558 529.303 295.003 529.303 295.003C529.303 295.003 531.989 295.375 533.369 297.079C534.748 298.783 539.264 297.982 539.264 297.982L558.276 266.458Z" fill="white"/>
<path d="M530.706 368.212C532.775 364.103 534.882 360.147 536.952 356.428V356.423C541.085 349.007 545.071 342.551 548.37 337.755C548.364 337.749 548.37 337.749 548.376 337.743C549.482 336.124 550.514 334.696 551.441 333.488C551.862 332.941 552.263 332.444 552.64 331.987C552.745 331.857 552.856 331.733 552.973 331.609C553.029 331.541 553.085 331.479 553.153 331.412C553.282 331.271 553.412 331.135 553.56 331.005C553.647 330.915 553.74 330.825 553.838 330.74C553.906 330.672 553.974 330.61 554.048 330.554C555.754 329.064 557.916 327.958 560.394 327.168C563.138 326.299 566.264 325.813 569.613 325.616C572.838 325.43 576.261 325.514 579.721 325.774H579.728C583.231 326.039 586.759 326.496 590.17 327.049C591.338 327.241 592.487 327.439 593.617 327.653C593.63 327.653 593.648 327.653 593.66 327.659H593.685C598.307 328.517 602.564 329.504 606.005 330.379V368.212H530.706Z" fill="#F99746"/>
<path d="M555.377 368.211C555.736 367.286 556.094 366.355 556.453 365.446C556.459 365.441 556.459 365.441 556.459 365.435C557.126 363.725 557.8 362.049 558.467 360.424C560.358 355.824 562.217 351.586 563.936 347.873C566.481 342.388 568.737 338.059 570.374 335.418C570.528 335.176 570.683 334.933 570.855 334.702C571.282 334.098 571.757 333.539 572.283 333.02C572.926 332.371 573.643 331.79 574.415 331.27C575.644 330.441 577.034 329.764 578.554 329.228C581.83 328.071 585.716 327.563 589.985 327.552C591.165 327.552 592.382 327.585 593.618 327.653C593.631 327.653 593.65 327.653 593.661 327.659H593.686C595.737 327.772 597.838 327.98 600.001 328.268C600.366 328.313 600.724 328.364 601.089 328.421C601.169 328.432 601.256 328.443 601.36 328.46C602.892 328.686 604.443 328.951 606.007 329.245V368.211H555.377Z" fill="#ED7D2B"/>
<path d="M618.856 368.14H614.968V203.982V194.887V147.843H424.661V194.887V203.982V368.14H420.773C411.064 368.14 403.194 375.329 403.194 384.196V384.755H636.435V384.196C636.435 375.329 628.564 368.14 618.856 368.14ZM433.512 155.928H606.116V194.887H433.512V155.928ZM433.512 203.982H606.116V368.14H433.512V203.982Z" fill="#8FB7EF"/>
<path d="M603.515 159.413H436.641V167.078H603.515V159.413Z" fill="white"/>
<path d="M603.515 171.45H436.641V179.116H603.515V171.45Z" fill="white"/>
<path d="M603.515 183.489H436.641V191.154H603.515V183.489Z" fill="white"/>
<path d="M603.515 194.763H436.641V202.428H603.515V194.763Z" fill="white"/>
<path d="M603.515 207.439H436.641V215.104H603.515V207.439Z" fill="white"/>
<path d="M446.001 155.803H444.388V221.321H446.001V155.803Z" fill="white"/>
<path d="M596.737 155.803H595.124V221.321H596.737V155.803Z" fill="white"/>
<path d="M614.416 535.011H432.963V755.308H614.416V535.011Z" fill="#F9DDBF"/>
<path d="M527.21 538.979C527.21 538.979 527.641 604.077 455.34 659.106C455.34 659.106 470.402 730.86 468.251 751.192H433.513V538.979H527.21Z" fill="white"/>
<path d="M533.522 649.877C533.522 649.877 526.009 650.627 521.598 657.426C517.187 664.225 508.641 693.644 502.397 699.648C496.152 705.652 474.13 717.659 474.13 717.659L479.718 720.962C479.718 720.962 513.243 711.656 518.173 706.252C523.103 700.849 530.066 671.881 530.066 671.881L533.522 649.877Z" fill="#FFB27D"/>
<path d="M540.936 608.475C540.936 608.475 541.361 598.777 556.644 598.177C571.928 597.577 582.923 609.345 583.424 615.768C583.926 622.193 580.803 632.19 590.827 638.824C600.852 645.457 595.922 676.336 572.256 676.336C548.592 676.336 534.491 675.078 534.401 663.92C534.311 652.762 533.929 642.653 543.328 639.552C552.727 636.452 540.936 608.475 540.936 608.475Z" fill="#233862"/>
<path d="M566.766 732.576C566.766 732.576 566.734 732.667 566.679 732.837C566.654 732.904 566.629 732.978 566.598 733.068C566.536 733.26 566.45 733.508 566.351 733.812C566.326 733.88 566.302 733.959 566.277 734.038C566.19 734.281 566.098 734.563 566 734.868C565.937 735.048 565.876 735.24 565.807 735.443C565.27 737.052 564.541 739.287 563.669 741.978C563.453 742.672 563.219 743.401 562.977 744.156C562.861 744.529 562.737 744.913 562.613 745.302C562.57 745.431 562.526 745.567 562.489 745.703C562.403 745.968 562.317 746.233 562.237 746.504C562.138 746.809 562.039 747.119 561.94 747.441C561.711 748.169 561.477 748.919 561.236 749.686C560.68 751.475 560.098 753.36 559.512 755.307H523.761C523.848 753.259 523.953 751.323 524.083 749.511C524.107 749.088 524.139 748.676 524.17 748.264C524.324 746.221 524.497 744.336 524.676 742.632C524.725 742.181 524.768 741.741 524.818 741.312C524.917 740.448 525.016 739.636 525.114 738.868C525.132 738.727 525.151 738.592 525.17 738.457C525.188 738.316 525.207 738.18 525.226 738.045C525.337 737.232 525.442 736.487 525.547 735.81C525.585 735.584 525.621 735.364 525.652 735.15C525.683 734.941 525.72 734.732 525.751 734.535C525.782 734.337 525.813 734.151 525.843 733.97C525.874 733.79 525.905 733.62 525.936 733.451C525.949 733.366 525.96 733.287 525.979 733.208C526.022 732.971 526.059 732.751 526.096 732.548C526.127 732.413 526.152 732.282 526.17 732.164C526.195 732.045 526.22 731.933 526.238 731.831C526.325 731.408 526.466 731.013 526.664 730.657C526.713 730.567 526.769 730.477 526.825 730.392C526.88 730.307 526.936 730.222 526.998 730.144C527.127 729.974 527.269 729.816 527.423 729.664C527.491 729.596 527.566 729.528 527.64 729.466C527.721 729.392 527.801 729.325 527.887 729.263C527.955 729.212 528.017 729.167 528.085 729.122C528.202 729.038 528.319 728.958 528.443 728.885C528.523 728.834 528.604 728.789 528.69 728.744C528.869 728.648 529.055 728.552 529.246 728.473C529.344 728.428 529.449 728.383 529.554 728.343C529.672 728.293 529.796 728.247 529.919 728.202C530.036 728.163 530.154 728.123 530.277 728.084C530.389 728.045 530.506 728.01 530.624 727.977C531.032 727.859 531.464 727.757 531.915 727.672C532.02 727.65 532.125 727.633 532.237 727.616C532.404 727.582 532.57 727.554 532.743 727.531C532.972 727.503 533.201 727.469 533.435 727.441C533.59 727.425 533.744 727.407 533.905 727.396C534.029 727.385 534.158 727.373 534.288 727.362C534.504 727.345 534.727 727.328 534.949 727.317C535.209 727.305 535.48 727.294 535.752 727.283C536.994 727.243 538.323 727.271 539.694 727.35C540.01 727.367 540.325 727.39 540.646 727.412C541.171 727.452 541.703 727.496 542.234 727.548C543 727.621 543.779 727.706 544.563 727.807H544.57C544.638 727.813 544.712 727.824 544.787 727.835C545.151 727.881 545.516 727.931 545.88 727.982C546.98 728.135 548.08 728.31 549.173 728.496C549.606 728.569 550.038 728.649 550.465 728.727L551.651 728.947C552.757 729.156 553.845 729.376 554.895 729.602C555.291 729.686 555.674 729.771 556.057 729.856C556.155 729.873 556.254 729.895 556.353 729.924C556.545 729.963 556.73 730.003 556.909 730.048C557.187 730.11 557.459 730.172 557.731 730.234C558.176 730.341 558.608 730.443 559.029 730.539C559.196 730.578 559.362 730.618 559.529 730.657C559.795 730.725 560.055 730.786 560.308 730.849C561.006 731.018 561.661 731.188 562.267 731.346C562.545 731.419 562.811 731.487 563.064 731.554C563.286 731.611 563.496 731.667 563.7 731.724C563.731 731.729 563.762 731.736 563.792 731.746C563.972 731.798 564.145 731.842 564.305 731.882C564.46 731.927 564.614 731.966 564.756 732.006C564.935 732.057 565.102 732.102 565.257 732.147C565.362 732.176 565.467 732.204 565.56 732.232C565.671 732.26 565.776 732.288 565.869 732.316C566.45 732.481 566.766 732.576 566.766 732.576Z" fill="#1C468A"/>
<path d="M566.766 732.576C566.766 732.576 566.734 732.667 566.679 732.837C566.654 732.904 566.629 732.978 566.598 733.068C566.536 733.26 566.45 733.508 566.351 733.812C566.326 733.88 566.302 733.959 566.277 734.038C566.19 734.281 566.098 734.563 566 734.868C565.937 735.048 565.876 735.24 565.807 735.443C565.27 737.052 564.541 739.287 563.669 741.978C563.453 742.672 563.219 743.401 562.977 744.156C562.861 744.529 562.737 744.913 562.613 745.302C562.57 745.431 562.526 745.567 562.489 745.703C562.403 745.968 562.317 746.233 562.237 746.504C562.138 746.809 562.039 747.119 561.94 747.441C561.711 748.169 561.477 748.919 561.236 749.686C560.68 751.475 560.098 753.36 559.512 755.307H523.761C523.848 753.259 523.953 751.323 524.083 749.511C524.107 749.088 524.139 748.676 524.17 748.264C524.324 746.221 524.497 744.336 524.676 742.632C524.725 742.181 524.768 741.741 524.818 741.312C524.917 740.448 525.016 739.636 525.114 738.868C525.132 738.727 525.151 738.592 525.17 738.457C525.188 738.316 525.207 738.18 525.226 738.045C525.337 737.232 525.442 736.487 525.547 735.81C525.585 735.584 525.621 735.364 525.652 735.15C525.683 734.941 525.72 734.732 525.751 734.535C525.782 734.337 525.813 734.151 525.843 733.97C525.874 733.79 525.905 733.62 525.936 733.451C525.949 733.366 525.96 733.287 525.979 733.208C526.022 732.971 526.059 732.751 526.096 732.548C526.127 732.413 526.152 732.282 526.17 732.164C526.195 732.045 526.22 731.933 526.238 731.831C526.325 731.408 526.466 731.013 526.664 730.657C526.713 730.567 526.769 730.477 526.825 730.392C526.88 730.307 526.936 730.222 526.998 730.144C527.127 729.974 527.269 729.816 527.423 729.664C527.491 729.596 527.566 729.528 527.64 729.466C527.721 729.392 527.801 729.325 527.887 729.263C527.955 729.212 528.017 729.167 528.085 729.122C528.202 729.038 528.319 728.958 528.443 728.885C528.523 728.834 528.604 728.789 528.69 728.744C528.869 728.648 529.055 728.552 529.246 728.473C529.344 728.428 529.449 728.383 529.554 728.343C529.672 728.293 529.796 728.247 529.919 728.202C530.036 728.163 530.154 728.123 530.277 728.084C530.389 728.045 530.506 728.01 530.624 727.977C531.032 727.859 531.464 727.757 531.915 727.672C532.02 727.65 532.125 727.633 532.237 727.616C532.404 727.582 532.57 727.554 532.743 727.531C532.972 727.503 533.201 727.469 533.435 727.441C533.59 727.425 533.744 727.407 533.905 727.396C534.029 727.385 534.158 727.373 534.288 727.362C534.504 727.345 534.727 727.328 534.949 727.317C535.209 727.305 535.48 727.294 535.752 727.283C536.994 727.243 538.323 727.271 539.694 727.35C540.01 727.367 540.325 727.39 540.646 727.412C541.171 727.452 541.703 727.496 542.234 727.548C543 727.621 543.779 727.706 544.563 727.807H544.57C544.638 727.813 544.712 727.824 544.787 727.835C545.151 727.881 545.516 727.931 545.88 727.982C546.98 728.135 548.08 728.31 549.173 728.496C549.606 728.569 550.038 728.649 550.465 728.727L551.651 728.947C552.757 729.156 553.845 729.376 554.895 729.602C555.291 729.686 555.674 729.771 556.057 729.856C556.155 729.873 556.254 729.895 556.353 729.924C556.545 729.963 556.73 730.003 556.909 730.048C557.187 730.11 557.459 730.172 557.731 730.234C558.176 730.341 558.608 730.443 559.029 730.539C559.196 730.578 559.362 730.618 559.529 730.657C559.795 730.725 560.055 730.786 560.308 730.849C561.006 731.018 561.661 731.188 562.267 731.346C562.545 731.413 562.811 731.487 563.064 731.554C563.286 731.611 563.496 731.667 563.7 731.724C563.731 731.729 563.762 731.736 563.792 731.746C563.972 731.791 564.145 731.842 564.305 731.882C564.46 731.927 564.614 731.966 564.756 732.006C564.935 732.057 565.102 732.102 565.257 732.147C565.362 732.176 565.467 732.204 565.56 732.232C565.671 732.26 565.776 732.288 565.869 732.316C566.45 732.481 566.766 732.576 566.766 732.576Z" fill="#163560"/>
<path d="M584.418 755.308H549.082C548.204 750.776 547.376 746.589 546.635 742.95C545.375 736.725 544.38 732.081 543.928 729.993C543.756 729.191 543.663 728.762 543.663 728.762C543.663 728.762 543.99 728.406 544.565 727.809H544.571C548.236 724.039 562.082 710.676 568.7 716.81C569.781 717.814 570.93 718.881 572.098 720.043C576.052 723.982 580.211 728.977 582.639 736.014C584.43 741.205 585.283 747.503 584.418 755.308Z" fill="#1C468A"/>
<path d="M540.936 654.431L546.913 662.62L558.956 662.079L564.519 648.945C564.519 648.945 562.803 648.649 562.004 632.271L546.972 636.459C546.972 636.459 547.771 640.729 546.706 645.378C545.966 648.62 544.339 652.08 540.936 654.431Z" fill="#FFB27D"/>
<path d="M539.26 648.654C540.033 648.654 554.193 644.327 574.413 651.848C574.413 651.848 564.814 702.005 568.937 711.577C573.06 721.15 574.627 729.646 574.627 729.646L529.898 730.152C529.898 730.152 530.523 697.296 528.462 685.667C526.4 674.038 539.26 648.654 539.26 648.654Z" fill="#FFB27D"/>
<path d="M583.424 734.933C582.675 736.373 580.985 737.508 578.928 738.415C576.239 739.598 572.939 740.39 570.31 740.942C568.272 741.368 565.144 741.849 561.534 742.215C559.615 742.414 557.563 742.581 555.48 742.689C555.184 742.708 554.888 742.72 554.599 742.732C541.122 743.344 526.03 743.044 524.064 737.19C523.873 736.632 523.873 735.509 523.999 734.026C524.255 731.006 525.024 726.491 525.773 722.264C526.49 718.224 527.187 714.447 527.384 712.484C528.416 702.109 526.247 687.214 525.93 677.572C525.675 669.532 533.523 649.875 533.523 649.875C533.523 649.875 535.016 649.064 540.847 648.333C540.847 648.333 541.688 657.981 547.111 658.797C556.505 660.215 564.065 652.361 566.28 649.197C566.28 649.197 577.061 651.682 580.222 654.979C582.497 657.344 582.201 663.006 581.523 666.572C581.313 667.701 581.057 668.62 580.84 669.154C580.17 670.763 577.646 682.591 576.495 687.303C576.469 687.424 576.443 687.531 576.417 687.634C576.338 687.952 576.272 688.228 576.206 688.456C576.199 688.463 576.199 688.468 576.199 688.474C576.134 688.726 576.074 688.925 576.029 689.051C576.002 689.128 575.976 689.206 575.95 689.279C575.95 689.285 575.95 689.29 575.943 689.297C574.28 694.135 573.28 699.07 573.866 705.129C573.938 705.838 574.115 706.695 574.385 707.662C575.883 714.7 582.129 728.569 583.424 734.933Z" fill="#F99746"/>
<path d="M546.706 645.377C552.92 644.918 562.004 632.271 562.004 632.271L546.972 636.458C546.972 636.458 547.77 640.729 546.706 645.377Z" fill="#ED975D"/>
<path d="M540.846 648.332C540.846 648.332 526.422 649.743 521.598 655.934C516.774 662.125 513.708 671.411 513.708 671.411C513.708 671.411 517.151 680.845 527.211 679.665C537.27 678.486 540.846 648.332 540.846 648.332Z" fill="#F99746"/>
<path d="M544.451 640.179C544.451 640.179 562.801 639.67 562.278 629.238C561.756 618.806 563.772 611.714 552.034 611.597C540.296 611.481 538.221 615.557 537.469 619.078C536.715 622.599 539.664 640.042 544.451 640.179Z" fill="#FFB27D"/>
<path d="M545.867 610.276C545.867 610.276 546.423 613.734 553.655 618.265C560.887 622.797 562.126 633.351 562.126 633.351C562.126 633.351 567.595 614.605 561.054 610.38C554.514 606.155 545.867 610.276 545.867 610.276Z" fill="#233862"/>
<path d="M551.791 604.364C551.791 604.364 542.397 603.552 535.731 613.172C532.859 617.317 535.1 623.789 538.071 627.191C538.071 627.191 539.048 618.343 544.172 615.371C549.294 612.397 551.791 604.364 551.791 604.364Z" fill="#233862"/>
<path d="M548.66 634.097C548.66 634.097 548.493 635.384 545.056 635.545C545.056 635.545 542.169 635.682 542.085 634.296C542.085 634.296 544.742 633.027 548.66 634.097Z" fill="white"/>
<path d="M489.051 703.582C489.051 703.582 484.212 698.426 488.752 695.151C488.752 695.151 492.069 693.317 494.774 693.466C494.774 693.466 490.942 699.335 492.182 699.919C493.421 700.503 495.935 693.098 495.935 693.098C495.935 693.098 503.483 692.429 505.912 693.496C505.912 693.496 499.46 698.319 500.818 698.605C502.177 698.893 509.147 694.159 509.147 694.159C509.147 694.159 516.171 695.252 515.797 699.165C515.423 703.079 513.002 704.288 511.938 704.184C510.874 704.08 504.651 701.91 504.515 702.706C504.38 703.502 508.126 706.104 510.749 706.226C510.749 706.226 505.797 711.214 502.505 709.775C499.214 708.334 498.933 706.052 496.88 705.197C494.829 704.341 493.077 704.343 493.924 705.216C494.771 706.089 498.485 706.937 499.658 708.833C500.831 710.728 501.884 712.007 498.478 711.539C495.073 711.071 489.537 708.795 489.295 706.189C489.051 703.582 489.051 703.582 489.051 703.582Z" fill="#82B378"/>
<path d="M512.344 699.269C512.344 699.269 493.264 698.599 489.051 703.582C489.051 703.582 488.119 706.131 485.251 708.452L484.805 709.565C484.805 709.565 488.111 706.381 489.294 706.189C489.294 706.189 487.444 700.013 512.344 699.269Z" fill="#82B378"/>
<path d="M485.251 708.452C485.251 708.452 481.156 711.217 480.872 716.16L481.615 716.221C481.615 716.221 482.923 711.11 485.287 709.111C487.651 707.114 485.251 708.452 485.251 708.452Z" fill="#82B378"/>
<path d="M472.131 697.097C472.131 697.097 479.829 693.16 476.237 687.817C476.237 687.817 473.363 684.536 470.284 683.692C470.284 683.692 471.926 691.66 470.284 691.847C468.642 692.035 469.155 682.848 469.155 682.848C469.155 682.848 461.047 679.286 457.865 679.568C457.865 679.568 462.895 687.348 461.252 687.161C459.61 686.973 453.965 679.099 453.965 679.099C453.965 679.099 445.651 677.693 444.317 682.192C442.983 686.692 445.138 688.942 446.369 689.223C447.601 689.504 455.504 689.41 455.299 690.348C455.094 691.285 449.757 692.785 446.78 691.941C446.78 691.941 450.064 699.347 454.375 698.972C458.686 698.597 460.021 696.16 462.689 695.972C465.358 695.785 467.308 696.441 465.973 697.097C464.639 697.753 460.123 697.312 457.968 698.986C455.812 700.66 454.067 701.691 458.07 702.441C462.073 703.191 469.257 702.722 470.695 699.91C472.131 697.097 472.131 697.097 472.131 697.097Z" fill="#A8D29F"/>
<path d="M448.114 683.598C448.114 683.598 469.668 689.973 472.131 697.098C472.131 697.098 472.029 700.284 474.184 703.941V705.346C474.184 705.346 471.926 700.565 470.695 699.909C470.695 699.909 475.518 693.723 448.114 683.598Z" fill="#82B378"/>
<path d="M474.185 703.94C474.185 703.94 477.509 708.55 475.614 714.162L474.758 713.952C474.758 713.952 475.589 707.771 473.85 704.663C472.11 701.554 474.185 703.94 474.185 703.94Z" fill="#82B378"/>
<path d="M484.378 691.667C484.378 691.667 474.231 686.477 478.966 679.434C478.966 679.434 482.754 675.109 486.813 673.997C486.813 673.997 484.649 684.5 486.813 684.747C488.978 684.994 488.302 672.884 488.302 672.884C488.302 672.884 498.99 668.189 503.184 668.559C503.184 668.559 496.555 678.816 498.719 678.568C500.884 678.321 508.325 667.941 508.325 667.941C508.325 667.941 519.283 666.088 521.042 672.02C522.802 677.951 519.961 680.917 518.337 681.287C516.713 681.658 506.296 681.534 506.566 682.77C506.837 684.006 513.871 685.982 517.796 684.871C517.796 684.871 513.466 694.633 507.784 694.139C502.101 693.644 500.342 690.431 496.825 690.184C493.308 689.937 490.737 690.802 492.495 691.667C494.254 692.532 500.207 691.951 503.049 694.157C505.89 696.363 508.189 697.722 502.913 698.71C497.637 699.699 488.166 699.081 486.271 695.374C484.378 691.667 484.378 691.667 484.378 691.667Z" fill="#A8D29F"/>
<path d="M516.037 673.874C516.037 673.874 487.626 682.276 484.378 691.667C484.378 691.667 484.513 695.868 481.672 700.688V702.541C481.672 702.541 484.649 696.239 486.272 695.374C486.272 695.374 479.913 687.219 516.037 673.874Z" fill="#82B378"/>
<path d="M481.672 700.688C481.672 700.688 477.29 706.765 479.789 714.163L480.916 713.886C480.916 713.886 479.821 705.738 482.114 701.641C484.407 697.542 481.672 700.688 481.672 700.688Z" fill="#82B378"/>
<path d="M503.912 712.05C503.912 722.076 495.014 730.204 484.036 730.204C481.744 730.204 479.543 729.849 477.495 729.197C469.731 726.727 464.16 719.983 464.16 712.05H503.912Z" fill="#1C468A"/>
<path d="M484.036 730.204C483.228 730.296 487.294 730.204 486.458 730.204C475.48 730.204 466.582 722.076 466.582 712.05H471.52C471.52 721.312 474.223 729.094 484.036 730.204Z" fill="#285BA5"/>
<path d="M504.187 731.128H463.884C463.884 730.509 464.159 729.949 464.603 729.544C465.046 729.138 465.66 728.888 466.337 728.888H501.735C503.089 728.888 504.187 729.891 504.187 731.128Z" fill="#163560"/>
<path d="M504.365 712.05H463.506V712.606H504.365V712.05Z" fill="#163560"/>
<path d="M505.16 718.82C504.71 717.853 500.397 716.901 498.678 716.221C498.678 716.221 497.585 716.938 499.048 718.118C499.444 718.438 500.177 718.929 500.87 719.377C500.658 719.327 500.449 719.278 500.245 719.227C498.708 718.848 488.76 721.945 487.578 723.962C486.398 725.979 493.286 731.011 498.43 729.43C501.073 728.618 509.705 727.188 509.705 727.188L508.26 720.81C508.26 720.811 505.61 719.787 505.16 718.82Z" fill="#FFB27D"/>
<path d="M581.86 659.075C581.86 659.075 583.909 672.029 569.119 691.242C554.328 710.455 555.188 711.655 546.706 716.759C538.223 721.862 509.704 727.189 509.704 727.189L508.26 720.811C508.26 720.811 535.922 704.565 538.551 701.355C541.18 698.146 558.955 662.077 558.955 662.077L581.86 659.075Z" fill="#FFB27D"/>
<path d="M567.665 654.263C567.665 654.263 555.864 662.714 552.727 666.841C549.59 670.968 546.706 680.206 546.706 680.206C546.706 680.206 559.058 687.281 580.361 682.171C580.361 682.171 586.032 658.109 580.222 654.978C574.413 651.848 569.031 654.262 569.031 654.262L567.665 654.263Z" fill="#F99746"/>
<path d="M531.945 538.979C531.945 538.979 545.153 592.285 606.116 611.152C606.116 611.152 605.537 693.303 598.652 714.922C591.766 736.541 590.044 751.192 590.044 751.192H606.116V538.98H531.945V538.979Z" fill="white"/>
<path d="M618.856 751.192H614.968V587.033V577.938V530.895H424.661V577.938V587.033V751.192H420.773C411.064 751.192 403.194 758.38 403.194 767.247V767.806H636.435V767.247C636.435 758.38 628.564 751.192 618.856 751.192ZM433.512 538.979H606.116V577.938H433.512V538.979ZM433.512 587.033H606.116V751.192H433.512V587.033Z" fill="#8FB7EF"/>
<path d="M712.589 819.233H30.8025V904.459H712.589V819.233Z" fill="#77A4E5"/>
<path opacity="0.5" d="M321.55 535.009H140.095V755.306H321.55V535.009Z" fill="white"/>
<path d="M317.125 539.051H144.522V751.264H317.125V539.051Z" fill="#FFCB9C"/>
<path d="M214.872 725.921C214.872 725.921 204.919 738.319 204.919 751.264H272.476C272.476 751.264 268.857 731.154 253.476 725.921C238.094 720.687 214.872 725.921 214.872 725.921Z" fill="#233862"/>
<path d="M297.547 659.108C297.547 659.108 286.923 683.79 285.739 684.662C282.545 687.013 262.915 659.634 259.899 654.857C256.883 650.08 238.246 654.165 236.66 645.281C236.172 642.549 235.182 639.562 235.174 637.649C235.172 637.421 235.174 637.185 235.175 636.954C235.195 635.226 235.322 633.352 235.596 631.348L234.666 631.414L219.032 632.515C219.032 632.515 220.601 635.98 220.075 640.117C219.902 641.471 219.841 644.019 219.658 646.512C219.454 649.288 217.386 651.653 214.463 652.436C207.765 654.232 199.469 656.927 198.022 660.329C195.207 666.948 188.874 696.857 187.667 706.992C186.461 717.126 175.202 746.855 175.202 746.855H180.831C180.831 746.855 201.942 714.424 203.752 709.357C204.308 707.801 206.319 701.598 208.839 693.75C211.195 702.286 214.551 710.805 215.276 714.264C216.547 720.324 204.355 739.882 205.562 745.302C206.769 750.723 271.309 753.654 270.429 745.302C269.55 736.95 260.451 722.804 258.641 716.192C257.277 711.209 260.441 694.57 261.424 684.69C271.283 694.975 284.687 704.571 288.8 702.603C299.356 697.554 302.673 660.275 302.673 660.275L297.547 659.108Z" fill="#FFB27D"/>
<path d="M224.096 623.666C224.096 623.666 215.688 629.78 222.79 638.614C222.79 638.614 214.555 638.306 212.483 636.34C212.483 636.34 212.826 637.225 213.194 637.647C213.194 637.647 205.578 637.07 202.729 634.568C199.881 632.066 206.523 596.845 227.055 603.101C227.055 603.101 245.058 603.816 240.932 622.49C236.806 641.163 243.543 641.899 243.543 641.899C243.543 641.899 241.559 642.538 240.654 642.439C240.654 642.439 239.392 641.835 239.219 641.138C239.219 641.138 239.343 642.216 239.638 642.586C239.638 642.586 232.285 642.422 228.981 639.519C225.678 636.618 222.551 627.443 224.096 623.666Z" fill="#233862"/>
<path d="M216.673 631.364C216.673 631.364 213.038 624.411 212.685 618.765C212.433 614.734 216.546 600.345 232.366 604.206C232.366 604.206 236.986 605.136 241.027 608.326C244.24 610.863 248.675 616.067 241.368 628.218L239.34 632.371L216.673 631.364Z" fill="#233862"/>
<path d="M236.66 645.281C225.372 643.776 219.007 632.931 219.007 632.931C223.611 632.464 230.032 634.602 235.175 636.953C235.174 637.185 235.172 637.421 235.174 637.648C235.182 639.562 235.904 642.6 236.66 645.281Z" fill="#ED975D"/>
<path d="M236.806 641.164C236.806 641.164 216.54 639.264 218.029 627.755C219.519 616.247 217.906 608.251 230.909 608.977C243.911 609.704 245.852 614.367 246.378 618.318C246.904 622.27 242.116 641.362 236.806 641.164Z" fill="#FFB27D"/>
<path d="M240.158 609.7C240.158 609.7 232.857 622.596 224.096 623.666C215.337 624.736 211.922 622.254 211.922 622.254C211.922 622.254 219.059 618.234 221.49 610.126C221.49 610.126 236.82 602.819 240.158 609.7Z" fill="#233862"/>
<path d="M238.642 610.646C238.642 610.646 242.384 614.111 243.009 617.151C243.635 620.191 243.3 626.272 245.252 626.277C245.252 626.277 250.623 617.556 246.612 611.854C242.359 605.808 238.642 610.646 238.642 610.646Z" fill="#233862"/>
<path d="M239.35 611.186C239.35 611.186 233.558 624.893 222.242 628.252C222.242 628.252 234.101 620.735 236.231 611.502C238.361 602.269 239.35 611.186 239.35 611.186Z" fill="#233862"/>
<path d="M232.651 634.444C232.651 634.444 233.157 636.102 234.398 636.349C235.639 636.597 238.883 636.917 239.173 636.697C239.463 636.477 240.433 635.009 240.433 635.009C240.433 635.009 235.231 633.915 232.651 634.444Z" fill="white"/>
<path d="M297.333 660.501C297.333 660.501 296.968 651.717 297.99 648.7C299.013 645.683 301.237 640.822 301.739 641.027C302.241 641.231 303.228 647.813 302.81 649.291C302.392 650.769 303.236 654.271 303.879 653.572C304.522 652.873 305.526 648.2 306.369 648.476C307.212 648.75 306.427 651.59 306.829 652.303C307.232 653.016 307.202 654.926 305.567 657.35C303.931 659.773 302.351 662.547 302.351 662.547L297.333 660.501Z" fill="#FFB27D"/>
<path d="M176.417 746.855C176.417 746.855 168.268 745.071 165.587 745.917C162.908 746.763 158.02 751.12 159.281 751.192C160.542 751.264 166.139 749.885 166.928 750.069C167.715 750.252 170.001 750.523 170.001 750.523C170.001 750.523 166.691 750.715 166.848 751.264C167.006 751.814 175.423 751.909 176.417 751.264C177.411 750.62 180.831 746.855 180.831 746.855L176.417 746.855Z" fill="#FFB27D"/>
<path d="M205.762 655.177C205.762 655.177 215.99 663.17 229.002 662.547C242.015 661.924 252.275 652.148 252.275 652.148C252.275 652.148 258.2 652.191 261.316 655.221C264.432 658.251 276.296 671.84 276.296 671.84C276.296 671.84 277.336 682.033 264.008 689.15L262.657 686.948C262.657 686.948 260.412 712.331 261.819 714.718C263.227 717.106 274.285 742.087 272.476 745.917C270.666 749.747 210.124 759.173 205.562 745.301C200.999 731.429 212.39 719.401 211.922 714.443C211.454 709.485 208.839 693.749 208.839 693.749C208.839 693.749 191.348 691.305 190.745 681.755C190.745 681.755 193.836 655.042 205.762 655.177Z" fill="white"/>
<path d="M329.972 751.192H326.084V587.033V577.938V530.895H135.778V577.938V587.033V751.192H131.889C122.181 751.192 114.31 758.38 114.31 767.247V767.806H347.551V767.247C347.551 758.38 339.681 751.192 329.972 751.192ZM144.629 538.979H317.232V577.938H144.629V538.979ZM144.629 587.033H317.232V751.192H144.629V587.033Z" fill="#8FB7EF"/>
<path d="M314.631 542.464H147.757V550.129H314.631V542.464Z" fill="white"/>
<path d="M314.631 554.502H147.757V562.167H314.631V554.502Z" fill="white"/>
<path d="M314.631 566.54H147.757V574.205H314.631V566.54Z" fill="white"/>
<path d="M314.631 577.814H147.757V585.478H314.631V577.814Z" fill="white"/>
<path d="M314.631 590.49H147.757V598.155H314.631V590.49Z" fill="white"/>
<path d="M157.118 538.854H155.504V604.372H157.118V538.854Z" fill="white"/>
<path d="M307.853 538.854H306.24V604.372H307.853V538.854Z" fill="white"/>
<path d="M270.827 745.054H246.261V737.13H270.905C272.821 737.13 274.375 738.548 274.375 740.298V741.814C274.375 743.603 272.786 745.054 270.827 745.054Z" fill="#FCECDB"/>
<path d="M295.342 740.39V741.582C295.342 742.219 295.155 742.815 294.827 743.328C294.168 744.36 292.943 745.053 291.541 745.053H245.508C245.204 745.053 244.957 744.828 244.957 744.55V744.372C244.957 744.094 245.204 743.868 245.508 743.868H273.57C273.72 743.701 273.852 743.521 273.963 743.328C274.226 742.876 274.375 742.36 274.375 741.812V740.297C274.375 740.018 274.335 739.748 274.261 739.49C274.136 739.055 273.911 738.655 273.611 738.313H245.508C245.204 738.313 244.957 738.088 244.957 737.81V737.632C244.957 737.354 245.204 737.128 245.508 737.128H291.773C293.403 737.128 294.778 738.127 295.205 739.49C295.294 739.776 295.342 740.078 295.342 740.39Z" fill="#699DEE"/>
<path d="M295.205 739.491H274.261C274.136 739.055 273.911 738.656 273.611 738.315H245.508C245.204 738.315 244.957 738.089 244.957 737.811V737.633C244.957 737.355 245.204 737.129 245.508 737.129H291.773C293.403 737.13 294.778 738.128 295.205 739.491Z" fill="#548EE2"/>
<path d="M246.261 741.091L249.669 741.225L246.261 741.305V741.091Z" fill="#F4D2B8"/>
<path d="M246.261 742.334L254.37 742.468L246.261 742.548V742.334Z" fill="#F4D2B8"/>
<path d="M251.516 751.192H277.668V745.028H251.304C249.5 745.028 248.036 746.364 248.036 748.013C248.036 749.768 249.594 751.192 251.516 751.192Z" fill="#B5453C"/>
<path d="M276.166 751.192H305.929V745.028H276.09C274.255 745.028 272.768 746.387 272.768 748.063V748.088C272.768 749.802 274.289 751.192 276.166 751.192Z" fill="#FCECDB"/>
<path d="M270.781 751.192H306.963C307.241 751.192 307.467 750.986 307.467 750.731C307.467 750.477 307.241 750.271 306.963 750.271H270.781C270.502 750.271 270.276 750.477 270.276 750.731C270.276 750.986 270.502 751.192 270.781 751.192Z" fill="#B5453C"/>
<path d="M270.781 745.95H306.963C307.241 745.95 307.467 745.744 307.467 745.489C307.467 745.235 307.241 745.029 306.963 745.029H270.781C270.502 745.029 270.276 745.235 270.276 745.489C270.276 745.743 270.502 745.95 270.781 745.95Z" fill="#B5453C"/>
<path d="M305.929 748.11L301.908 748.213L305.929 748.276V748.11Z" fill="#F4D2B8"/>
<path d="M305.929 746.691L296.364 746.795L305.929 746.858V746.691Z" fill="#F4D2B8"/>
<path d="M296.462 746.775C296.462 746.775 296.872 747.04 297.008 747.474C297.032 747.551 297.047 747.632 297.05 747.718C297.073 748.297 297.05 749.606 297.05 749.606L298.26 748.951L299.467 749.606V747.832C299.467 747.496 299.364 747.17 299.171 746.956C299.078 746.852 298.965 746.775 298.837 746.775H296.462Z" fill="#699DEE"/>
<path d="M296.462 746.775C296.462 746.775 296.872 747.04 297.008 747.474L299.433 747.5C299.433 747.5 299.338 746.877 298.837 746.775H296.462Z" fill="#568CDB"/>
<path d="M317.784 151.955H136.332V372.252H317.784V151.955Z" fill="#DFEBFD"/>
<path d="M223.535 155.928C223.535 155.928 223.105 221.026 295.406 276.055C295.406 276.055 280.344 347.809 282.495 368.141H317.232V155.928H223.535Z" fill="white"/>
<path d="M158.816 279.456C158.816 279.456 143.695 281.409 139.794 284.527C133.209 289.788 138.035 369.899 138.035 369.899C138.035 369.899 160.784 371.615 160.784 369.899C160.784 368.182 158.816 279.456 158.816 279.456Z" fill="#D39E7A"/>
<path d="M218.126 370.046L185.601 372.253L162.937 373.787L158.155 374.115L157.858 372.253L157.599 370.605L157.543 370.238L156.4 362.992L156.394 362.969L155.943 360.114L154.553 351.299L147.429 306.243L145.445 293.687C145.445 293.687 143.937 281.841 155.999 279.911C156.882 279.77 157.815 279.618 158.773 279.46C158.785 279.46 158.804 279.454 158.816 279.454C162.9 278.788 167.571 278.021 172.168 277.485C175.962 277.039 179.707 276.751 183.025 276.808C184.452 276.83 185.799 276.92 187.035 277.084C188.641 277.293 190.062 277.637 191.242 278.145C191.378 278.196 191.508 278.258 191.638 278.326C192.107 278.546 192.528 278.794 192.904 279.082C193.065 279.2 193.213 279.33 193.356 279.46C193.763 279.838 194.239 280.639 194.777 281.796C195.357 283.055 196.006 284.731 196.711 286.757C197.693 289.573 198.781 293.049 199.93 296.971C203.136 307.959 206.819 322.439 210.032 335.611C210.131 336.011 210.23 336.406 210.322 336.801C210.736 338.5 211.144 340.176 211.534 341.813C211.552 341.892 211.577 341.971 211.595 342.05C211.67 342.354 211.737 342.659 211.812 342.964C212.009 343.776 212.201 344.583 212.392 345.374C212.763 346.954 213.128 348.489 213.48 349.967C215.84 359.967 217.564 367.557 218.009 369.538C218.089 369.871 218.126 370.046 218.126 370.046Z" fill="#EFCBAB"/>
<path d="M197.56 286.471C197.56 286.471 202.7 293.419 205.632 308.024C208.2 320.815 210.451 325.538 214.159 328.161C217.867 330.784 238.528 338.529 238.528 338.529L236.983 341.834C236.983 341.834 206.701 338.068 203.299 333.445C199.898 328.823 186.93 301.512 187.936 295.222C188.944 288.932 197.56 286.471 197.56 286.471Z" fill="#F4A269"/>
<path d="M266.933 372.253H241.934C241.309 369.978 240.383 368.539 238.622 368.455C237.034 368.376 228.427 369.211 218.009 369.538C201.481 370.063 180.405 369.324 175.66 361.688C174.523 359.865 173.695 358.043 173.108 356.259V356.254C173.015 355.989 172.935 355.735 172.855 355.475C171.884 352.179 171.705 349.053 171.909 346.333C172.027 344.747 172.274 343.297 172.57 342.038C173.299 338.889 174.319 336.926 174.319 336.926L182.481 342.383C182.487 342.383 182.487 342.383 182.487 342.383L183.402 342.992C183.402 342.992 190.415 342.512 200.06 342.14C202.198 342.061 204.465 341.982 206.819 341.92C207.987 341.886 209.174 341.858 210.378 341.835C210.761 341.824 211.15 341.818 211.533 341.813C214.45 341.756 217.44 341.728 220.418 341.728C220.715 341.728 221.012 341.728 221.302 341.734C222.006 341.734 222.705 341.739 223.403 341.745C234.92 341.852 245.863 342.541 251.417 344.459C252.196 344.725 252.869 345.018 253.426 345.34C253.444 345.351 253.463 345.362 253.481 345.374C257.486 347.761 262.348 358.934 266.933 372.253Z" fill="#ED7D2B"/>
<path d="M243.991 372.253H185.601L162.937 373.788C161.837 373.325 160.843 372.817 159.965 372.253C159.162 371.745 158.464 371.192 157.871 370.594C157.759 370.475 157.648 370.356 157.543 370.238C157.179 369.832 156.87 369.403 156.616 368.951C155.473 366.937 155.078 364.99 155.226 363.144V363.139C155.306 362.095 155.554 361.085 155.943 360.114C156.857 357.8 158.526 355.695 160.453 353.861C165.335 349.217 171.859 346.333 171.859 346.333C171.859 346.333 171.878 346.333 171.909 346.333C172.558 346.361 179.367 346.672 188.363 347.36H188.369C189.234 347.422 190.118 347.496 191.02 347.563C191.02 347.563 191.02 347.563 191.026 347.563C198.064 348.139 206.108 348.923 213.48 349.967C222.989 351.316 231.374 353.088 235.025 355.379C237.868 357.162 240.963 363.652 243.991 372.253Z" fill="#F99746"/>
<path d="M196.396 261.193C196.396 261.159 196.396 261.125 196.39 261.086C196.39 261.08 196.39 261.08 196.39 261.08C196.371 260.166 196.322 259.257 196.254 258.354C196.05 255.64 195.667 253.01 195.129 250.651C194.826 249.302 194.474 248.044 194.086 246.898C194.023 246.723 193.962 246.554 193.9 246.385V246.379C192.949 243.783 191.787 241.881 190.514 241.114C188.191 239.714 185.305 239.398 183.279 239.387C183.835 238.93 184.873 238.811 184.873 238.811C183.631 238.563 180.745 239.528 180.745 239.528C163.735 232.322 159.28 255.634 159.249 261.108C159.212 266.588 158.798 272.869 149.728 277.231C146.249 278.901 143.95 280.922 142.505 283.089C136.536 292.033 145.119 303.495 145.119 303.495C145.156 303.517 146.095 304.635 147.429 306.243C150.89 310.397 157.013 317.806 157.013 317.806C157.013 317.806 157.013 317.801 157.013 317.795C156.994 316.796 157.933 314.849 159.54 312.36C160.726 310.526 162.271 308.393 164.063 306.13C164.909 305.058 165.811 303.958 166.757 302.84C168.011 301.362 169.339 299.855 170.717 298.371C171.242 297.801 171.774 297.231 172.311 296.672C174.746 294.133 177.285 291.689 179.775 289.556C180.356 289.059 180.931 288.58 181.499 288.117H181.505C182.216 287.547 182.92 286.999 183.612 286.497C184.947 285.515 186.245 284.663 187.48 283.975C187.536 283.941 187.592 283.913 187.653 283.879H187.66C187.833 283.783 187.999 283.693 188.172 283.602C188.698 282.993 189.173 282.299 189.606 281.559C189.767 281.283 189.927 281.001 190.069 280.713C190.514 279.866 190.903 278.992 191.243 278.145C192.256 275.572 192.787 273.247 192.886 272.829C192.515 275.053 192.089 276.859 191.638 278.326C191.335 279.302 191.026 280.126 190.724 280.826C190.501 281.334 190.285 281.768 190.069 282.152C189.976 282.327 189.876 282.491 189.784 282.643C189.92 282.541 190.05 282.44 190.18 282.332C190.674 281.932 191.131 281.48 191.558 280.978C192.052 280.402 192.497 279.77 192.905 279.082C195.593 274.567 196.569 267.795 196.396 261.193Z" fill="#B5453C"/>
<path d="M187.871 280.407C187.572 280.293 187.225 280.173 186.859 280.05C186.88 279.344 186.922 278.588 186.98 277.822C187.244 274.327 187.808 270.635 187.808 270.635L175.071 267.514L174.314 267.33C173.96 272.457 172.819 275.969 171.817 278.341C170.498 278.396 169.659 278.468 169.659 278.468C169.445 279.166 169.664 280.261 170.367 281.476C170.274 281.694 170.199 281.889 170.159 282.051C169.367 285.305 178.342 289.904 182.503 290.071C184.936 290.17 186.238 289.288 186.919 288.163C191.994 286.962 191.595 281.829 187.871 280.407Z" fill="#FFB27D"/>
<path d="M187.809 270.635C187.809 270.635 187.244 274.327 186.981 277.822C179.771 277.196 176.393 270.946 175.072 267.514L187.809 270.635Z" fill="#F4A269"/>
<path d="M173.832 266.15C173.832 266.15 170.445 260.457 169.878 255.73C169.473 252.356 172.235 240.109 185.705 242.717C185.705 242.717 189.629 243.313 193.174 245.829C195.994 247.83 199.969 252.022 194.416 262.518L192.912 266.086L173.832 266.15Z" fill="#B5453C"/>
<path d="M189.979 274.091C189.979 274.091 172.871 273.308 173.569 263.585C174.267 253.862 172.529 247.213 183.481 247.302C194.434 247.391 196.288 251.228 196.919 254.525C197.55 257.822 194.447 274.045 189.979 274.091Z" fill="#FFB27D"/>
<path d="M191.282 247.537C191.282 247.537 185.771 258.659 178.467 259.908C171.163 261.157 168.177 259.21 168.177 259.21C168.177 259.21 173.976 255.549 175.629 248.643C175.629 248.643 188.149 241.893 191.282 247.537Z" fill="#B5453C"/>
<path d="M190.055 248.392C190.055 248.392 193.363 251.152 194.035 253.68C194.706 256.208 194.717 261.327 196.356 261.253C196.356 261.253 200.447 253.715 196.806 249.088C192.944 244.181 190.055 248.392 190.055 248.392Z" fill="#B5453C"/>
<path d="M207.097 343.808C205.713 345.32 201.39 345.784 196.77 346.478C193.134 347.026 189.315 347.714 186.6 349.171C180.433 352.478 160.283 363.655 154.378 363.146C152.088 362.949 152.517 358.957 153.903 353.66C156.086 345.295 160.656 333.679 160.656 328.627C160.656 325.871 161.661 319.348 163.002 311.889C163.11 311.288 163.222 310.682 163.333 310.069C165.986 295.568 169.661 278.469 169.661 278.469C169.661 278.469 173.758 286.635 181.743 286.635C189.725 286.635 187.871 280.408 187.871 280.408C187.871 280.408 195.156 281.19 196.877 282.883C198.6 284.576 202.964 291.896 203.831 293.892C203.831 293.892 204.007 296.432 197.122 297.641C197.122 297.641 198.799 304.536 198.997 309.131C199.145 312.527 196.461 323.153 195.689 329.763C195.416 332.104 195.38 333.941 195.796 334.774C196.328 335.842 198.051 336.905 200.012 337.948C203.902 340.018 208.74 342.01 207.097 343.808Z" fill="#739AF0"/>
<path d="M200.01 337.949C204.429 344.831 188.025 346.9 185.309 348.357C179.142 351.664 160.282 363.654 154.377 363.145C152.087 362.949 152.516 358.956 153.902 353.66C156.085 345.295 160.655 333.678 160.655 328.627C160.655 325.87 161.66 319.347 163 311.889L170.109 305.655C170.109 305.655 177.726 323.636 184.986 326.582C188.791 328.125 192.766 329.144 195.687 329.763C195.413 332.104 195.377 333.941 195.793 334.774C196.326 335.843 198.05 336.906 200.01 337.949Z" fill="#4A75CB"/>
<path d="M223.906 342.963H201.543V345.376H223.906V342.963Z" fill="#233862"/>
<path d="M219.156 345.046C219.375 344.247 239.714 315.078 239.714 315.078H284.969L262.27 344.262L219.156 345.046Z" fill="#233862"/>
<path d="M221.06 345.376C221.279 344.578 241.684 315.078 241.684 315.078H284.969L263.373 345.376H221.06Z" fill="#2B478B"/>
<path d="M256.884 331.239C256.439 332.421 255.028 333.379 253.734 333.379C252.44 333.379 251.752 332.42 252.198 331.239C252.644 330.057 254.054 329.099 255.348 329.099C256.642 329.099 257.33 330.057 256.884 331.239Z" fill="#AFCDFB"/>
<path d="M213.83 335.406C212.894 335.04 205.667 336.241 203.604 336.594C197.06 335.424 175.545 331.497 174.498 330.267C173.262 328.816 170.565 284.589 167.475 283.852C167.475 283.852 161.397 280.48 155.521 286.875C149.644 293.27 159.697 338.984 168.405 341.333C178.076 343.942 206.017 340.915 206.017 340.915V340.914C208.312 341.63 212.324 342.033 214.455 342.682C217.267 343.538 219.766 342.825 220.391 341.826C221.015 340.827 214.924 335.834 213.83 335.406Z" fill="#FFB27D"/>
<path d="M169.66 278.468C169.66 278.468 157.178 279.497 153.553 283.246C149.928 286.996 148.868 297.156 148.868 297.156C148.868 297.156 159.86 305.261 173.104 302.116L169.66 278.468Z" fill="#739AF0"/>
<path d="M218.801 155.928C218.801 155.928 205.593 209.234 144.629 228.101C144.629 228.101 145.208 310.252 152.094 331.871C158.98 353.49 160.701 368.141 160.701 368.141H144.629V155.928H218.801Z" fill="white"/>
<path d="M114.311 384.196V384.755H347.552V384.196C347.552 375.329 339.681 368.14 329.973 368.14H326.084V203.982V194.887V147.843H135.778V194.887V203.982V368.14H131.89C122.181 368.14 114.311 375.329 114.311 384.196ZM317.232 194.887H144.629V155.928H317.232V194.887ZM317.232 368.14H144.629V203.982H317.232V368.14Z" fill="#8FB7EF"/>
<path d="M287.891 352.138C287.891 352.138 294.02 354.409 298.375 348.701C298.375 348.701 291.305 347.607 287.891 352.138Z" fill="#6BB7BF"/>
<path d="M287.46 349.796C287.46 349.796 287.031 347.796 284.461 347.727C284.461 347.727 285.428 349.752 287.46 349.796Z" fill="#6BB7BF"/>
<path d="M288.752 338.09C288.752 338.09 291.722 338.38 292.836 335.406C292.836 335.406 289.617 335.734 288.752 338.09Z" fill="#6BB7BF"/>
<path d="M295.802 298.777C289.807 297.603 289.706 293.125 289.706 293.125C296.767 295.162 295.802 298.777 295.802 298.777Z" fill="#6BB7BF"/>
<path d="M296.214 297.755C296.214 297.755 299.954 299.142 302.612 295.658C302.612 295.658 298.298 294.99 296.214 297.755Z" fill="#6BB7BF"/>
<path d="M288.008 365.273L287.234 366.087C287.116 366.211 286.893 366.134 286.893 365.97C286.937 342.916 290.142 322.436 292.834 310.351C295.771 297.162 298.75 289.366 298.78 289.288C298.75 289.365 296.063 297.287 293.134 310.438C290.439 322.543 287.355 338.363 288.135 364.961C288.138 365.077 288.09 365.187 288.008 365.273Z" fill="#6BB7BF"/>
<path d="M298.729 286.147C297.773 286.849 294.112 289.839 297.663 292.146C297.663 292.146 300.385 292.934 301.287 291.018C301.975 289.557 302.161 287.926 302.211 287.236C302.224 287.057 302.075 286.905 301.879 286.888C301.669 286.87 301.39 286.828 301.11 286.728C300.773 286.609 300.602 286.144 300.147 286.042C299.862 285.978 299.571 285.923 299.239 285.95C299.052 285.965 298.875 286.039 298.729 286.147Z" fill="#F99746"/>
<path d="M296.697 291.312C296.697 291.312 297.781 292.106 297.38 293.373L297.368 293.843C297.368 293.843 297.658 292.67 298.987 292.307C298.987 292.307 297.787 292.428 296.697 291.312Z" fill="#6BB7BF"/>
<path d="M295.802 298.777C289.807 297.603 289.706 293.125 289.706 293.125C289.706 293.125 294.455 295.506 295.802 298.777Z" fill="#8AD8DB"/>
<path d="M290.043 295.709C290.043 295.709 286.273 297.027 283.691 293.495C283.691 293.495 288.021 292.905 290.043 295.709Z" fill="#6BB7BF"/>
<path d="M296.767 363.363L297.523 364.192C297.638 364.318 297.863 364.244 297.866 364.081C298.328 341.031 295.573 320.496 293.147 308.365C290.499 295.125 287.691 287.275 287.663 287.198C287.691 287.275 290.204 295.245 292.843 308.446C295.273 320.598 298.009 336.471 296.646 363.05C296.64 363.164 296.686 363.276 296.767 363.363Z" fill="#6BB7BF"/>
<path d="M287.783 284.057C288.724 284.776 292.319 287.833 288.717 290.075C288.717 290.075 285.978 290.812 285.118 288.88C284.462 287.406 284.312 285.773 284.278 285.083C284.27 284.903 284.42 284.753 284.617 284.74C284.828 284.726 285.108 284.689 285.39 284.595C285.729 284.482 285.911 284.02 286.368 283.926C286.655 283.867 286.946 283.818 287.277 283.851C287.465 283.869 287.639 283.946 287.783 284.057Z" fill="#F99746"/>
<path d="M289.702 289.257C289.702 289.257 288.601 290.031 288.974 291.306L288.975 291.775C288.975 291.775 288.711 290.598 287.39 290.21C287.39 290.21 288.587 290.353 289.702 289.257Z" fill="#6BB7BF"/>
<path d="M291.641 291.671C291.641 291.671 295.623 292.28 297.386 288.35C297.386 288.35 293.014 288.558 291.641 291.671Z" fill="#6BB7BF"/>
<path d="M299.753 359.199L299.192 360.148C299.106 360.292 298.87 360.261 298.831 360.101C293.37 337.594 291.607 316.967 291.349 304.638C291.067 291.181 292.113 282.979 292.123 282.898C292.113 282.978 291.382 291.245 291.663 304.663C291.923 317.013 292.69 333.067 299.803 358.87C299.834 358.981 299.813 359.098 299.753 359.199Z" fill="#6BB7BF"/>
<path d="M291.323 279.841C290.557 280.717 287.698 284.365 291.715 285.909C291.715 285.909 294.56 286.135 294.983 284.086C295.305 282.523 295.098 280.895 294.981 280.211C294.951 280.033 294.77 279.914 294.575 279.937C294.366 279.962 294.083 279.976 293.786 279.935C293.429 279.886 293.151 279.466 292.682 279.457C292.388 279.452 292.092 279.456 291.775 279.548C291.595 279.6 291.441 279.707 291.323 279.841Z" fill="#F99746"/>
<path d="M290.573 285.286C290.573 285.286 291.82 285.845 291.732 287.162L291.833 287.622C291.833 287.622 291.835 286.42 293.046 285.801C293.046 285.802 291.904 286.159 290.573 285.286Z" fill="#6BB7BF"/>
<path d="M294.927 287.622C294.927 287.622 294.927 284.743 297.643 283.84C297.643 283.84 298.241 286.241 294.927 287.622Z" fill="#6BB7BF"/>
<path d="M288.546 282.996C288.546 282.996 288.626 280.798 286.401 280.165C286.401 280.165 285.865 282.21 288.546 282.996Z" fill="#ED9F4A"/>
<path d="M295.847 296.213C295.927 296.276 297.007 294.075 294.811 292.306C294.811 292.306 293.893 294.662 295.847 296.213Z" fill="#ED9F4A"/>
<path d="M297.385 296.041C297.324 296.056 297.368 294.946 298.509 294.787C298.509 294.787 298.703 295.711 297.385 296.041Z" fill="#6BB7BF"/>
<path d="M286.006 292.306C286.006 292.306 285.043 290.485 281.96 290.802C281.96 290.802 282.423 292.755 286.006 292.306Z" fill="#6BB7BF"/>
<path d="M303.046 367.971H283.284C281.956 367.971 280.937 366.896 281.128 365.696L290.327 307.79C290.413 307.25 290.92 306.849 291.518 306.849H294.454C295.091 306.849 295.632 307.275 295.725 307.85L305.143 365.752C305.332 366.921 304.341 367.971 303.046 367.971Z" fill="#F99746"/>
<path d="M287.662 366.22L292.545 306.863C292.019 306.927 291.592 307.299 291.514 307.79L282.315 365.696C282.124 366.896 283.143 367.972 284.471 367.972H288.421C287.912 367.553 287.604 366.917 287.662 366.22Z" fill="#FFB278"/>
<path d="M741.657 -8.9198e-05L0 24.4001L1.82863 70.7652L743.485 46.365L741.657 -8.9198e-05Z" fill="#AFCDFB"/>
<path d="M340.528 96.3518H121.861V139.057H340.528V96.3518Z" fill="#AFCDFB"/>
<path d="M629.04 96.3518H410.374V139.057H629.04V96.3518Z" fill="#AFCDFB"/>
<path d="M340.528 471.767H121.861V514.472H340.528V471.767Z" fill="#AFCDFB"/>
<path d="M629.04 471.767H410.374V514.472H629.04V471.767Z" fill="#AFCDFB"/>
</svg>
