<svg width="1497" height="1159" viewBox="0 0 1497 1159" fill="none" xmlns="http://www.w3.org/2000/svg">
<path d="M550.961 0.268066H431.503V1009.61H550.961V0.268066Z" fill="#C5C5C5"/>
<path d="M524.132 0.268066H404.673V1009.61H524.132V0.268066Z" fill="#959595"/>
<path d="M524.101 0H404.674V58.3251H524.101V0Z" fill="#C5C5C5"/>
<path d="M524.101 126.499H404.674V184.823H524.101V126.499Z" fill="#C5C5C5"/>
<path d="M524.101 252.997H404.674V311.322H524.101V252.997Z" fill="#C5C5C5"/>
<path d="M524.101 379.496H404.674V437.821H524.101V379.496Z" fill="#C5C5C5"/>
<path d="M524.101 505.996H404.674V564.32H524.101V505.996Z" fill="#C5C5C5"/>
<path d="M524.101 632.494H404.674V690.819H524.101V632.494Z" fill="#C5C5C5"/>
<path d="M524.101 758.994H404.674V817.318H524.101V758.994Z" fill="#C5C5C5"/>
<path d="M524.101 885.491H404.674V943.817H524.101V885.491Z" fill="#C5C5C5"/>
<path d="M359.997 143.09H240.539V1009.61H359.997V143.09Z" fill="#C5C5C5"/>
<path d="M333.167 143.09H213.709V1009.61H333.167V143.09Z" fill="#959595"/>
<path d="M333.136 142.861H213.709V192.933H333.136V142.861Z" fill="#C5C5C5"/>
<path d="M333.136 251.459H213.709V301.531H333.136V251.459Z" fill="#C5C5C5"/>
<path d="M333.136 360.059H213.709V410.131H333.136V360.059Z" fill="#C5C5C5"/>
<path d="M333.136 468.658H213.709V518.73H333.136V468.658Z" fill="#C5C5C5"/>
<path d="M333.136 577.256H213.709V627.329H333.136V577.256Z" fill="#C5C5C5"/>
<path d="M333.136 685.857H213.709V735.928H333.136V685.857Z" fill="#C5C5C5"/>
<path d="M333.136 794.455H213.709V844.527H333.136V794.455Z" fill="#C5C5C5"/>
<path d="M333.136 903.054H213.709V953.126H333.136V903.054Z" fill="#C5C5C5"/>
<path d="M615.614 978.647H565.59V1105.39H615.614V978.647Z" fill="#C2C2C2"/>
<path d="M1301.62 472.087V394.48H1287.94V261.037H1214.61V394.48H1146.05V177.039H1070.4V318.192H1053.15V149.675H977.499V465.634H881.822V649.879H846.074V696.295H763.96V616.368H716.814V399.183H658.577V800.103H600.339V1148.97H658.577H708.495H716.814H763.96H790.609H833.29H846.074H881.822H915.404H977.499H996.517H1034.35H1053.15H1070.4H1110H1136.96H1146.05H1214.61H1286.71H1287.94H1301.62H1360.04V472.087H1301.62Z" fill="#959595"/>
<path d="M717.353 401.366H658.603V451.489H717.353V401.366Z" fill="#C5C5C5"/>
<path d="M717.353 475.908H658.603V526.031H717.353V475.908Z" fill="#C5C5C5"/>
<path d="M717.353 550.451H658.603V600.574H717.353V550.451Z" fill="#C5C5C5"/>
<path d="M717.353 628.588H658.603V678.711H717.353V628.588Z" fill="#C5C5C5"/>
<path d="M717.353 704.304H658.603V754.427H717.353V704.304Z" fill="#C5C5C5"/>
<path d="M717.353 780.02H658.603V830.143H717.353V780.02Z" fill="#C5C5C5"/>
<path d="M717.353 859.235H658.603V909.359H717.353V859.235Z" fill="#C5C5C5"/>
<path d="M738.198 401.366H716.537V620.41H738.198V401.366Z" fill="#C5C5C5"/>
<path d="M807.533 620.411H763.96V701.031H807.533V620.411Z" fill="#C5C5C5"/>
<path d="M1146.03 177.391H1161.07V396.6H1146.06L1146.03 177.391Z" fill="#C5C5C5"/>
<path d="M1062.38 149.675H1053.15V319.544H1062.38V149.675Z" fill="#C5C5C5"/>
<path d="M1053.15 171.187H977.458V203.659H1053.15V171.187Z" fill="#C5C5C5"/>
<path d="M1053.15 232.19H977.458V264.661H1053.15V232.19Z" fill="#C5C5C5"/>
<path d="M1053.15 287.072H977.458V319.544H1053.15V287.072Z" fill="#C5C5C5"/>
<path d="M1146.03 287.072H1070.34V319.544H1146.03V287.072Z" fill="#C5C5C5"/>
<path d="M1146.03 232.19H1070.34V264.661H1146.03V232.19Z" fill="#C5C5C5"/>
<path d="M1146.03 177.391H1070.34V209.863H1146.03V177.391Z" fill="#C5C5C5"/>
<path d="M1146.05 340.286H977.458V372.758H1146.05V340.286Z" fill="#C5C5C5"/>
<path d="M1146.05 393.5H977.458V425.971H1146.05V393.5Z" fill="#C5C5C5"/>
<path d="M1146.05 445.506H977.458V466.12H1146.05V445.506Z" fill="#C5C5C5"/>
<path d="M910.28 555.771H897.456V587.179H910.28V555.771Z" fill="#C5C5C5"/>
<path d="M934.263 555.771H921.438V587.179H934.263V555.771Z" fill="#C5C5C5"/>
<path d="M957.708 555.771H944.884V587.179H957.708V555.771Z" fill="#C5C5C5"/>
<path d="M979.937 555.771H967.113V587.179H979.937V555.771Z" fill="#C5C5C5"/>
<path d="M1002.6 555.771H989.771V587.179H1002.6V555.771Z" fill="#C5C5C5"/>
<path d="M1025.51 555.771H1012.69V587.179H1025.51V555.771Z" fill="#C5C5C5"/>
<path d="M1049.49 555.771H1036.67V587.179H1049.49V555.771Z" fill="#C5C5C5"/>
<path d="M1072.94 555.771H1060.11V587.179H1072.94V555.771Z" fill="#C5C5C5"/>
<path d="M1095.17 555.771H1082.34V587.179H1095.17V555.771Z" fill="#C5C5C5"/>
<path d="M1117.83 555.771H1105V587.179H1117.83V555.771Z" fill="#C5C5C5"/>
<path d="M1141.44 555.771H1128.61V587.179H1141.44V555.771Z" fill="#C5C5C5"/>
<path d="M1165.42 555.771H1152.59V587.179H1165.42V555.771Z" fill="#C5C5C5"/>
<path d="M1188.86 555.771H1176.04V587.179H1188.86V555.771Z" fill="#C5C5C5"/>
<path d="M1211.09 555.771H1198.27V587.179H1211.09V555.771Z" fill="#C5C5C5"/>
<path d="M1233.75 555.771H1220.93V587.179H1233.75V555.771Z" fill="#C5C5C5"/>
<path d="M1256.67 555.771H1243.84V587.179H1256.67V555.771Z" fill="#C5C5C5"/>
<path d="M1280.65 555.771H1267.82V587.179H1280.65V555.771Z" fill="#C5C5C5"/>
<path d="M1304.1 555.771H1291.27V587.179H1304.1V555.771Z" fill="#C5C5C5"/>
<path d="M1326.33 555.771H1313.5V587.179H1326.33V555.771Z" fill="#C5C5C5"/>
<path d="M1348.98 555.771H1336.16V587.179H1348.98V555.771Z" fill="#C5C5C5"/>
<path d="M910.28 610.346H897.456V641.754H910.28V610.346Z" fill="#C5C5C5"/>
<path d="M934.263 610.346H921.438V641.754H934.263V610.346Z" fill="#C5C5C5"/>
<path d="M957.708 610.346H944.884V641.754H957.708V610.346Z" fill="#C5C5C5"/>
<path d="M979.937 610.346H967.113V641.754H979.937V610.346Z" fill="#C5C5C5"/>
<path d="M1002.6 610.346H989.771V641.754H1002.6V610.346Z" fill="#C5C5C5"/>
<path d="M1025.51 610.346H1012.69V641.754H1025.51V610.346Z" fill="#C5C5C5"/>
<path d="M1049.49 610.346H1036.67V641.754H1049.49V610.346Z" fill="#C5C5C5"/>
<path d="M1072.94 610.346H1060.11V641.754H1072.94V610.346Z" fill="#C5C5C5"/>
<path d="M1095.17 610.346H1082.34V641.754H1095.17V610.346Z" fill="#C5C5C5"/>
<path d="M1117.83 610.346H1105V641.754H1117.83V610.346Z" fill="#C5C5C5"/>
<path d="M1141.44 610.346H1128.61V641.754H1141.44V610.346Z" fill="#C5C5C5"/>
<path d="M1165.42 610.346H1152.59V641.754H1165.42V610.346Z" fill="#C5C5C5"/>
<path d="M1188.86 610.346H1176.04V641.754H1188.86V610.346Z" fill="#C5C5C5"/>
<path d="M1211.09 610.346H1198.27V641.754H1211.09V610.346Z" fill="#C5C5C5"/>
<path d="M1233.75 610.346H1220.93V641.754H1233.75V610.346Z" fill="#C5C5C5"/>
<path d="M1256.67 610.346H1243.84V641.754H1256.67V610.346Z" fill="#C5C5C5"/>
<path d="M1280.65 610.346H1267.82V641.754H1280.65V610.346Z" fill="#C5C5C5"/>
<path d="M1304.1 610.346H1291.27V641.754H1304.1V610.346Z" fill="#C5C5C5"/>
<path d="M1326.33 610.346H1313.5V641.754H1326.33V610.346Z" fill="#C5C5C5"/>
<path d="M1348.98 610.346H1336.16V641.754H1348.98V610.346Z" fill="#C5C5C5"/>
<path d="M910.28 668.329H897.456V699.738H910.28V668.329Z" fill="#C5C5C5"/>
<path d="M934.263 668.329H921.438V699.738H934.263V668.329Z" fill="#C5C5C5"/>
<path d="M957.708 668.329H944.884V699.738H957.708V668.329Z" fill="#C5C5C5"/>
<path d="M979.937 668.329H967.113V699.738H979.937V668.329Z" fill="#C5C5C5"/>
<path d="M1002.6 668.329H989.771V699.738H1002.6V668.329Z" fill="#C5C5C5"/>
<path d="M1025.51 668.329H1012.69V699.738H1025.51V668.329Z" fill="#C5C5C5"/>
<path d="M1049.49 668.329H1036.67V699.738H1049.49V668.329Z" fill="#C5C5C5"/>
<path d="M1072.94 668.329H1060.11V699.738H1072.94V668.329Z" fill="#C5C5C5"/>
<path d="M1095.17 668.329H1082.34V699.738H1095.17V668.329Z" fill="#C5C5C5"/>
<path d="M1117.83 668.329H1105V699.738H1117.83V668.329Z" fill="#C5C5C5"/>
<path d="M1141.44 668.329H1128.61V699.738H1141.44V668.329Z" fill="#C5C5C5"/>
<path d="M1165.42 668.329H1152.59V699.738H1165.42V668.329Z" fill="#C5C5C5"/>
<path d="M1188.86 668.329H1176.04V699.738H1188.86V668.329Z" fill="#C5C5C5"/>
<path d="M1211.09 668.329H1198.27V699.738H1211.09V668.329Z" fill="#C5C5C5"/>
<path d="M1233.75 668.329H1220.93V699.738H1233.75V668.329Z" fill="#C5C5C5"/>
<path d="M1256.67 668.329H1243.84V699.738H1256.67V668.329Z" fill="#C5C5C5"/>
<path d="M1280.65 668.329H1267.82V699.738H1280.65V668.329Z" fill="#C5C5C5"/>
<path d="M1304.1 668.329H1291.27V699.738H1304.1V668.329Z" fill="#C5C5C5"/>
<path d="M1326.33 668.329H1313.5V699.738H1326.33V668.329Z" fill="#C5C5C5"/>
<path d="M1348.98 668.329H1336.16V699.738H1348.98V668.329Z" fill="#C5C5C5"/>
<path d="M910.28 723.753H897.456V755.161H910.28V723.753Z" fill="#C5C5C5"/>
<path d="M934.263 723.753H921.438V755.161H934.263V723.753Z" fill="#C5C5C5"/>
<path d="M957.708 723.753H944.884V755.161H957.708V723.753Z" fill="#C5C5C5"/>
<path d="M979.937 723.753H967.113V755.161H979.937V723.753Z" fill="#C5C5C5"/>
<path d="M1002.6 723.753H989.771V755.161H1002.6V723.753Z" fill="#C5C5C5"/>
<path d="M1025.51 723.753H1012.69V755.161H1025.51V723.753Z" fill="#C5C5C5"/>
<path d="M1049.49 723.753H1036.67V755.161H1049.49V723.753Z" fill="#C5C5C5"/>
<path d="M1072.94 723.753H1060.11V755.161H1072.94V723.753Z" fill="#C5C5C5"/>
<path d="M1095.17 723.753H1082.34V755.161H1095.17V723.753Z" fill="#C5C5C5"/>
<path d="M1117.83 723.753H1105V755.161H1117.83V723.753Z" fill="#C5C5C5"/>
<path d="M1141.44 723.753H1128.61V755.161H1141.44V723.753Z" fill="#C5C5C5"/>
<path d="M1165.42 723.753H1152.59V755.161H1165.42V723.753Z" fill="#C5C5C5"/>
<path d="M1188.86 723.753H1176.04V755.161H1188.86V723.753Z" fill="#C5C5C5"/>
<path d="M1211.09 723.753H1198.27V755.161H1211.09V723.753Z" fill="#C5C5C5"/>
<path d="M1233.75 723.753H1220.93V755.161H1233.75V723.753Z" fill="#C5C5C5"/>
<path d="M1256.67 723.753H1243.84V755.161H1256.67V723.753Z" fill="#C5C5C5"/>
<path d="M1280.65 723.753H1267.82V755.161H1280.65V723.753Z" fill="#C5C5C5"/>
<path d="M1304.1 723.753H1291.27V755.161H1304.1V723.753Z" fill="#C5C5C5"/>
<path d="M1326.33 723.753H1313.5V755.161H1326.33V723.753Z" fill="#C5C5C5"/>
<path d="M1348.98 723.753H1336.16V755.161H1348.98V723.753Z" fill="#C5C5C5"/>
<path d="M910.28 778.329H897.456V809.736H910.28V778.329Z" fill="#C5C5C5"/>
<path d="M934.263 778.329H921.438V809.736H934.263V778.329Z" fill="#C5C5C5"/>
<path d="M957.708 778.329H944.884V809.736H957.708V778.329Z" fill="#C5C5C5"/>
<path d="M979.937 778.329H967.113V809.736H979.937V778.329Z" fill="#C5C5C5"/>
<path d="M1002.6 778.329H989.771V809.736H1002.6V778.329Z" fill="#C5C5C5"/>
<path d="M1025.51 778.329H1012.69V809.736H1025.51V778.329Z" fill="#C5C5C5"/>
<path d="M1049.49 778.329H1036.67V809.736H1049.49V778.329Z" fill="#C5C5C5"/>
<path d="M1072.94 778.329H1060.11V809.736H1072.94V778.329Z" fill="#C5C5C5"/>
<path d="M1095.17 778.329H1082.34V809.736H1095.17V778.329Z" fill="#C5C5C5"/>
<path d="M1117.83 778.329H1105V809.736H1117.83V778.329Z" fill="#C5C5C5"/>
<path d="M1141.44 778.329H1128.61V809.736H1141.44V778.329Z" fill="#C5C5C5"/>
<path d="M1165.42 778.329H1152.59V809.736H1165.42V778.329Z" fill="#C5C5C5"/>
<path d="M1188.86 778.329H1176.04V809.736H1188.86V778.329Z" fill="#C5C5C5"/>
<path d="M1211.09 778.329H1198.27V809.736H1211.09V778.329Z" fill="#C5C5C5"/>
<path d="M1233.75 778.329H1220.93V809.736H1233.75V778.329Z" fill="#C5C5C5"/>
<path d="M1256.67 778.329H1243.84V809.736H1256.67V778.329Z" fill="#C5C5C5"/>
<path d="M1280.65 778.329H1267.82V809.736H1280.65V778.329Z" fill="#C5C5C5"/>
<path d="M1304.1 778.329H1291.27V809.736H1304.1V778.329Z" fill="#C5C5C5"/>
<path d="M1326.33 778.329H1313.5V809.736H1326.33V778.329Z" fill="#C5C5C5"/>
<path d="M1348.98 778.329H1336.16V809.736H1348.98V778.329Z" fill="#C5C5C5"/>
<path d="M1104.78 876.757H807.21V1156.09H1104.78V876.757Z" fill="#C5C5C5"/>
<path d="M879.037 1015.85H582.604V1156.09H879.037V1015.85Z" fill="#C5C5C5"/>
<path d="M1426.3 920.082H1128.73V1158.37H1426.3V920.082Z" fill="#C5C5C5"/>
<path d="M882.771 909.359H827.39V960.962H882.771V909.359Z" fill="#959595"/>
<path d="M953.863 909.359H898.481V960.962H953.863V909.359Z" fill="#959595"/>
<path d="M1023.6 909.359H968.218V960.962H1023.6V909.359Z" fill="#959595"/>
<path d="M1092 909.359H1036.61V960.962H1092V909.359Z" fill="#959595"/>
<path d="M1129.87 876.757H1101.36V1158.37H1129.87V876.757Z" fill="#CECFCF"/>
<path d="M1484.14 822.38H1455.61V1153.1H1484.14V822.38Z" fill="#CECFCF"/>
<path d="M1456.49 920.147H1425.86V1153.1H1456.49V920.147Z" fill="#CECFCF"/>
<path d="M671.841 379.553H670.296V401.366H671.841V379.553Z" fill="#C2C2C2"/>
<path d="M727.352 379.553H725.808V401.366H727.352V379.553Z" fill="#C2C2C2"/>
<path d="M1456.49 821.564H1292.89V1153.1H1456.49V821.564Z" fill="#959595"/>
<path d="M1445.52 755.161H1442.49V822.38H1445.52V755.161Z" fill="#959595"/>
<path d="M1497 920.082H1292.9V1158.57H1497V920.082Z" fill="#959595"/>
<path d="M1496.99 883.45H1292.89V960.962H1496.99V883.45Z" fill="#C5C5C5"/>
<path d="M1317.27 983.935H1306.79V1009.61H1317.27V983.935Z" fill="#CECFCF"/>
<path d="M1336.87 983.935H1326.39V1009.61H1336.87V983.935Z" fill="#CECFCF"/>
<path d="M1356.03 983.935H1345.55V1009.61H1356.03V983.935Z" fill="#CECFCF"/>
<path d="M1374.2 983.935H1363.72V1009.61H1374.2V983.935Z" fill="#CECFCF"/>
<path d="M1392.72 983.935H1382.24V1009.61H1392.72V983.935Z" fill="#CECFCF"/>
<path d="M1411.45 983.935H1400.97V1009.61H1411.45V983.935Z" fill="#CECFCF"/>
<path d="M1431.05 983.935H1420.57V1009.61H1431.05V983.935Z" fill="#CECFCF"/>
<path d="M1450.21 983.935H1439.73V1009.61H1450.21V983.935Z" fill="#CECFCF"/>
<path d="M1468.38 983.935H1457.9V1009.61H1468.38V983.935Z" fill="#CECFCF"/>
<path d="M1486.9 983.935H1476.42V1009.61H1486.9V983.935Z" fill="#CECFCF"/>
<path d="M1317.27 1029.23H1306.79V1054.91H1317.27V1029.23Z" fill="#CECFCF"/>
<path d="M1336.87 1029.23H1326.39V1054.91H1336.87V1029.23Z" fill="#CECFCF"/>
<path d="M1356.03 1029.23H1345.55V1054.91H1356.03V1029.23Z" fill="#CECFCF"/>
<path d="M1374.2 1029.23H1363.72V1054.91H1374.2V1029.23Z" fill="#CECFCF"/>
<path d="M1392.72 1029.23H1382.24V1054.91H1392.72V1029.23Z" fill="#CECFCF"/>
<path d="M1411.45 1029.23H1400.97V1054.91H1411.45V1029.23Z" fill="#CECFCF"/>
<path d="M1431.05 1029.23H1420.57V1054.91H1431.05V1029.23Z" fill="#CECFCF"/>
<path d="M1450.21 1029.23H1439.73V1054.91H1450.21V1029.23Z" fill="#CECFCF"/>
<path d="M1468.38 1029.23H1457.9V1054.91H1468.38V1029.23Z" fill="#CECFCF"/>
<path d="M1486.9 1029.23H1476.42V1054.91H1486.9V1029.23Z" fill="#CECFCF"/>
<path d="M1317.27 1073.84H1306.79V1099.51H1317.27V1073.84Z" fill="#CECFCF"/>
<path d="M1336.87 1073.84H1326.39V1099.51H1336.87V1073.84Z" fill="#CECFCF"/>
<path d="M1356.03 1073.84H1345.55V1099.51H1356.03V1073.84Z" fill="#CECFCF"/>
<path d="M1374.2 1073.84H1363.72V1099.51H1374.2V1073.84Z" fill="#CECFCF"/>
<path d="M1392.72 1073.84H1382.24V1099.51H1392.72V1073.84Z" fill="#CECFCF"/>
<path d="M1411.45 1073.84H1400.97V1099.51H1411.45V1073.84Z" fill="#CECFCF"/>
<path d="M1431.05 1073.84H1420.57V1099.51H1431.05V1073.84Z" fill="#CECFCF"/>
<path d="M1450.21 1073.84H1439.73V1099.51H1450.21V1073.84Z" fill="#CECFCF"/>
<path d="M1468.38 1073.84H1457.9V1099.51H1468.38V1073.84Z" fill="#CECFCF"/>
<path d="M1486.9 1073.84H1476.42V1099.51H1486.9V1073.84Z" fill="#CECFCF"/>
<path d="M1317.27 905.226H1308.46V931.703H1317.27V905.226Z" fill="#CECFCF"/>
<path d="M1404.72 905.226H1395.91V931.703H1404.72V905.226Z" fill="#CECFCF"/>
<path d="M1474.28 905.226H1465.47V931.703H1474.28V905.226Z" fill="#CECFCF"/>
<path d="M638.404 914.954H434.308V1156.09H638.404V914.954Z" fill="#959595"/>
<path d="M638.404 883.45H434.308V961.822H638.404V883.45Z" fill="#C5C5C5"/>
<path d="M458.688 985.051H448.205V1011.01H458.688V985.051Z" fill="#CECFCF"/>
<path d="M478.289 985.051H467.807V1011.01H478.289V985.051Z" fill="#CECFCF"/>
<path d="M497.451 985.051H486.969V1011.01H497.451V985.051Z" fill="#CECFCF"/>
<path d="M515.62 985.051H505.138V1011.01H515.62V985.051Z" fill="#CECFCF"/>
<path d="M534.139 985.051H523.656V1011.01H534.139V985.051Z" fill="#CECFCF"/>
<path d="M552.868 985.051H542.386V1011.01H552.868V985.051Z" fill="#CECFCF"/>
<path d="M572.47 985.051H561.988V1011.01H572.47V985.051Z" fill="#CECFCF"/>
<path d="M591.632 985.051H581.15V1011.01H591.632V985.051Z" fill="#CECFCF"/>
<path d="M609.802 985.051H599.32V1011.01H609.802V985.051Z" fill="#CECFCF"/>
<path d="M628.319 985.051H617.837V1011.01H628.319V985.051Z" fill="#CECFCF"/>
<path d="M458.688 1030.85H448.205V1056.81H458.688V1030.85Z" fill="#CECFCF"/>
<path d="M478.289 1030.85H467.807V1056.81H478.289V1030.85Z" fill="#CECFCF"/>
<path d="M497.451 1030.85H486.969V1056.81H497.451V1030.85Z" fill="#CECFCF"/>
<path d="M515.62 1030.85H505.138V1056.81H515.62V1030.85Z" fill="#CECFCF"/>
<path d="M534.139 1030.85H523.656V1056.81H534.139V1030.85Z" fill="#CECFCF"/>
<path d="M552.868 1030.85H542.386V1056.81H552.868V1030.85Z" fill="#CECFCF"/>
<path d="M572.47 1030.85H561.988V1056.81H572.47V1030.85Z" fill="#CECFCF"/>
<path d="M591.632 1030.85H581.15V1056.81H591.632V1030.85Z" fill="#CECFCF"/>
<path d="M609.802 1030.85H599.32V1056.81H609.802V1030.85Z" fill="#CECFCF"/>
<path d="M628.319 1030.85H617.837V1056.81H628.319V1030.85Z" fill="#CECFCF"/>
<path d="M458.688 1075.95H448.205V1101.91H458.688V1075.95Z" fill="#CECFCF"/>
<path d="M478.289 1075.95H467.807V1101.91H478.289V1075.95Z" fill="#CECFCF"/>
<path d="M497.451 1075.95H486.969V1101.91H497.451V1075.95Z" fill="#CECFCF"/>
<path d="M515.62 1075.95H505.138V1101.91H515.62V1075.95Z" fill="#CECFCF"/>
<path d="M534.139 1075.95H523.656V1101.91H534.139V1075.95Z" fill="#CECFCF"/>
<path d="M552.868 1075.95H542.386V1101.91H552.868V1075.95Z" fill="#CECFCF"/>
<path d="M572.47 1075.95H561.988V1101.91H572.47V1075.95Z" fill="#CECFCF"/>
<path d="M591.632 1075.95H581.15V1101.91H591.632V1075.95Z" fill="#CECFCF"/>
<path d="M609.802 1075.95H599.32V1101.91H609.802V1075.95Z" fill="#CECFCF"/>
<path d="M628.319 1075.95H617.837V1101.91H628.319V1075.95Z" fill="#CECFCF"/>
<path d="M458.687 905.468H449.878V932.239H458.687V905.468Z" fill="#CECFCF"/>
<path d="M546.134 905.468H537.326V932.239H546.134V905.468Z" fill="#CECFCF"/>
<path d="M615.697 905.468H606.889V932.239H615.697V905.468Z" fill="#CECFCF"/>
<path d="M421.491 914.608H217.395V1153.1H421.491V914.608Z" fill="#959595"/>
<path d="M421.491 883.45H217.395V960.962H421.491V883.45Z" fill="#C5C5C5"/>
<path d="M241.773 983.935H231.292V1009.61H241.773V983.935Z" fill="#C5C5C5"/>
<path d="M261.375 983.935H250.894V1009.61H261.375V983.935Z" fill="#C5C5C5"/>
<path d="M280.537 983.935H270.056V1009.61H280.537V983.935Z" fill="#C5C5C5"/>
<path d="M298.708 983.935H288.225V1009.61H298.708V983.935Z" fill="#C5C5C5"/>
<path d="M317.226 983.935H306.743V1009.61H317.226V983.935Z" fill="#C5C5C5"/>
<path d="M335.954 983.935H325.473V1009.61H335.954V983.935Z" fill="#C5C5C5"/>
<path d="M355.556 983.935H345.074V1009.61H355.556V983.935Z" fill="#C5C5C5"/>
<path d="M374.718 983.935H364.236V1009.61H374.718V983.935Z" fill="#C5C5C5"/>
<path d="M392.888 983.935H382.406V1009.61H392.888V983.935Z" fill="#C5C5C5"/>
<path d="M411.406 983.935H400.924V1009.61H411.406V983.935Z" fill="#C5C5C5"/>
<path d="M241.773 1029.23H231.292V1054.91H241.773V1029.23Z" fill="#C5C5C5"/>
<path d="M261.375 1029.23H250.894V1054.91H261.375V1029.23Z" fill="#C5C5C5"/>
<path d="M280.537 1029.23H270.056V1054.91H280.537V1029.23Z" fill="#C5C5C5"/>
<path d="M298.708 1029.23H288.225V1054.91H298.708V1029.23Z" fill="#C5C5C5"/>
<path d="M317.226 1029.23H306.743V1054.91H317.226V1029.23Z" fill="#C5C5C5"/>
<path d="M335.954 1029.23H325.473V1054.91H335.954V1029.23Z" fill="#C5C5C5"/>
<path d="M355.556 1029.23H345.074V1054.91H355.556V1029.23Z" fill="#C5C5C5"/>
<path d="M374.718 1029.23H364.236V1054.91H374.718V1029.23Z" fill="#C5C5C5"/>
<path d="M392.888 1029.23H382.406V1054.91H392.888V1029.23Z" fill="#C5C5C5"/>
<path d="M411.406 1029.23H400.924V1054.91H411.406V1029.23Z" fill="#C5C5C5"/>
<path d="M241.773 1073.84H231.292V1099.51H241.773V1073.84Z" fill="#C5C5C5"/>
<path d="M261.375 1073.84H250.894V1099.51H261.375V1073.84Z" fill="#C5C5C5"/>
<path d="M280.537 1073.84H270.056V1099.51H280.537V1073.84Z" fill="#C5C5C5"/>
<path d="M298.708 1073.84H288.225V1099.51H298.708V1073.84Z" fill="#C5C5C5"/>
<path d="M317.226 1073.84H306.743V1099.51H317.226V1073.84Z" fill="#C5C5C5"/>
<path d="M335.954 1073.84H325.473V1099.51H335.954V1073.84Z" fill="#C5C5C5"/>
<path d="M355.556 1073.84H345.074V1099.51H355.556V1073.84Z" fill="#C5C5C5"/>
<path d="M374.718 1073.84H364.236V1099.51H374.718V1073.84Z" fill="#C5C5C5"/>
<path d="M392.888 1073.84H382.406V1099.51H392.888V1073.84Z" fill="#C5C5C5"/>
<path d="M411.406 1073.84H400.924V1099.51H411.406V1073.84Z" fill="#C5C5C5"/>
<path d="M241.772 905.226H232.964V931.703H241.772V905.226Z" fill="#CECFCF"/>
<path d="M329.22 905.226H320.412V931.703H329.22V905.226Z" fill="#CECFCF"/>
<path d="M398.784 905.226H389.975V931.703H398.784V905.226Z" fill="#CECFCF"/>
<path d="M204.096 914.608H0V1153.1H204.096V914.608Z" fill="#959595"/>
<path d="M204.096 883.45H0V960.962H204.096V883.45Z" fill="#C5C5C5"/>
<path d="M24.3788 983.935H13.897V1009.61H24.3788V983.935Z" fill="#C5C5C5"/>
<path d="M43.981 983.935H33.4985V1009.61H43.981V983.935Z" fill="#C5C5C5"/>
<path d="M63.1429 983.935H52.6611V1009.61H63.1429V983.935Z" fill="#C5C5C5"/>
<path d="M81.3124 983.935H70.8306V1009.61H81.3124V983.935Z" fill="#C5C5C5"/>
<path d="M99.8307 983.935H89.3481V1009.61H99.8307V983.935Z" fill="#C5C5C5"/>
<path d="M118.56 983.935H108.078V1009.61H118.56V983.935Z" fill="#C5C5C5"/>
<path d="M138.161 983.935H127.679V1009.61H138.161V983.935Z" fill="#C5C5C5"/>
<path d="M157.324 983.935H146.842V1009.61H157.324V983.935Z" fill="#C5C5C5"/>
<path d="M175.494 983.935H165.012V1009.61H175.494V983.935Z" fill="#C5C5C5"/>
<path d="M194.011 983.935H183.529V1009.61H194.011V983.935Z" fill="#C5C5C5"/>
<path d="M24.3788 1029.23H13.897V1054.91H24.3788V1029.23Z" fill="#C5C5C5"/>
<path d="M43.981 1029.23H33.4985V1054.91H43.981V1029.23Z" fill="#C5C5C5"/>
<path d="M63.1429 1029.23H52.6611V1054.91H63.1429V1029.23Z" fill="#C5C5C5"/>
<path d="M81.3124 1029.23H70.8306V1054.91H81.3124V1029.23Z" fill="#C5C5C5"/>
<path d="M99.8307 1029.23H89.3481V1054.91H99.8307V1029.23Z" fill="#C5C5C5"/>
<path d="M118.56 1029.23H108.078V1054.91H118.56V1029.23Z" fill="#C5C5C5"/>
<path d="M138.161 1029.23H127.679V1054.91H138.161V1029.23Z" fill="#C5C5C5"/>
<path d="M157.324 1029.23H146.842V1054.91H157.324V1029.23Z" fill="#C5C5C5"/>
<path d="M175.494 1029.23H165.012V1054.91H175.494V1029.23Z" fill="#C5C5C5"/>
<path d="M194.011 1029.23H183.529V1054.91H194.011V1029.23Z" fill="#C5C5C5"/>
<path d="M24.3788 1073.84H13.897V1099.51H24.3788V1073.84Z" fill="#C5C5C5"/>
<path d="M43.981 1073.84H33.4985V1099.51H43.981V1073.84Z" fill="#C5C5C5"/>
<path d="M63.1429 1073.84H52.6611V1099.51H63.1429V1073.84Z" fill="#C5C5C5"/>
<path d="M81.3124 1073.84H70.8306V1099.51H81.3124V1073.84Z" fill="#C5C5C5"/>
<path d="M99.8307 1073.84H89.3481V1099.51H99.8307V1073.84Z" fill="#C5C5C5"/>
<path d="M118.56 1073.84H108.078V1099.51H118.56V1073.84Z" fill="#C5C5C5"/>
<path d="M138.161 1073.84H127.679V1099.51H138.161V1073.84Z" fill="#C5C5C5"/>
<path d="M157.324 1073.84H146.842V1099.51H157.324V1073.84Z" fill="#C5C5C5"/>
<path d="M175.494 1073.84H165.012V1099.51H175.494V1073.84Z" fill="#C5C5C5"/>
<path d="M194.011 1073.84H183.529V1099.51H194.011V1073.84Z" fill="#C5C5C5"/>
<path d="M24.3779 905.226H15.5698V931.703H24.3779V905.226Z" fill="#CECFCF"/>
<path d="M111.825 905.226H103.017V931.703H111.825V905.226Z" fill="#CECFCF"/>
<path d="M181.389 905.226H172.581V931.703H181.389V905.226Z" fill="#CECFCF"/>
</svg>
