<svg width="865" height="455" viewBox="0 0 865 455" fill="none" xmlns="http://www.w3.org/2000/svg">
<path d="M661.645 0H3.2627V328.429H661.645V0Z" fill="#C4BEA6"/>
<path d="M16.1588 0H11.4746V328.429H16.1588V0Z" fill="white"/>
<path d="M29.4415 0H24.7573V328.429H29.4415V0Z" fill="white"/>
<path d="M42.724 0H38.04V328.429H42.724V0Z" fill="white"/>
<path d="M56.0059 0H51.3218V328.429H56.0059V0Z" fill="white"/>
<path d="M69.2882 0H64.604V328.429H69.2882V0Z" fill="white"/>
<path d="M82.5702 0H77.8862V328.429H82.5702V0Z" fill="white"/>
<path d="M95.8531 0H91.1689V328.429H95.8531V0Z" fill="white"/>
<path d="M109.135 0H104.451V328.429H109.135V0Z" fill="white"/>
<path d="M122.418 0H117.734V328.429H122.418V0Z" fill="white"/>
<path d="M135.7 0H131.016V328.429H135.7V0Z" fill="white"/>
<path d="M148.982 0H144.298V328.429H148.982V0Z" fill="white"/>
<path d="M162.265 0H157.581V328.429H162.265V0Z" fill="white"/>
<path d="M175.545 0H170.861V328.429H175.545V0Z" fill="white"/>
<path d="M188.827 0H184.143V328.429H188.827V0Z" fill="white"/>
<path d="M202.11 0H197.426V328.429H202.11V0Z" fill="white"/>
<path d="M215.392 0H210.708V328.429H215.392V0Z" fill="white"/>
<path d="M228.674 0H223.99V328.429H228.674V0Z" fill="white"/>
<path d="M241.956 0H237.272V328.429H241.956V0Z" fill="white"/>
<path d="M255.239 0H250.555V328.429H255.239V0Z" fill="white"/>
<path d="M268.521 0H263.837V328.429H268.521V0Z" fill="white"/>
<path d="M281.804 0H277.12V328.429H281.804V0Z" fill="white"/>
<path d="M295.086 0H290.402V328.429H295.086V0Z" fill="white"/>
<path d="M308.367 0H303.683V328.429H308.367V0Z" fill="white"/>
<path d="M321.651 0H316.967V328.429H321.651V0Z" fill="white"/>
<path d="M334.931 0H330.247V328.429H334.931V0Z" fill="white"/>
<path d="M348.214 0H343.53V328.429H348.214V0Z" fill="white"/>
<path d="M361.496 0H356.812V328.429H361.496V0Z" fill="white"/>
<path d="M374.778 0H370.094V328.429H374.778V0Z" fill="white"/>
<path d="M388.061 0H383.376V328.429H388.061V0Z" fill="white"/>
<path d="M401.343 0H396.659V328.429H401.343V0Z" fill="white"/>
<path d="M414.626 0H409.941V328.429H414.626V0Z" fill="white"/>
<path d="M427.908 0H423.224V328.429H427.908V0Z" fill="white"/>
<path d="M441.19 0H436.506V328.429H441.19V0Z" fill="white"/>
<path d="M454.473 0H449.789V328.429H454.473V0Z" fill="white"/>
<path d="M467.755 0H463.071V328.429H467.755V0Z" fill="white"/>
<path d="M481.037 0H476.353V328.429H481.037V0Z" fill="white"/>
<path d="M494.319 0H489.635V328.429H494.319V0Z" fill="white"/>
<path d="M507.602 0H502.917V328.429H507.602V0Z" fill="white"/>
<path d="M520.884 0H516.2V328.429H520.884V0Z" fill="white"/>
<path d="M534.166 0H529.482V328.429H534.166V0Z" fill="white"/>
<path d="M547.448 0H542.764V328.429H547.448V0Z" fill="white"/>
<path d="M560.73 0H556.046V328.429H560.73V0Z" fill="white"/>
<path d="M574.013 0H569.329V328.429H574.013V0Z" fill="white"/>
<path d="M587.295 0H582.611V328.429H587.295V0Z" fill="white"/>
<path d="M600.577 0H595.894V328.429H600.577V0Z" fill="white"/>
<path d="M613.859 0H609.175V328.429H613.859V0Z" fill="white"/>
<path d="M627.141 0H622.457V328.429H627.141V0Z" fill="white"/>
<path d="M640.423 0H635.739V328.429H640.423V0Z" fill="white"/>
<path d="M653.705 0H649.021V328.429H653.705V0Z" fill="white"/>
<path d="M661.645 425.543V388.314H673.199V413.989C673.201 420.371 668.027 425.543 661.645 425.543Z" fill="#472300"/>
<path d="M661.643 328.496V382.417H332.204C330.24 370.434 324.511 359.722 316.292 351.527C305.987 341.199 291.728 334.824 275.983 334.824C247.729 334.824 224.269 355.41 219.787 382.417H3.31689V328.496H661.643Z" fill="url(#paint0_linear_2_2328)"/>
<path d="M661.643 382.415V395.762H332.995V391.832C332.995 388.621 332.733 385.481 332.205 382.415H661.643Z" fill="url(#paint1_linear_2_2328)"/>
<path d="M799.268 144.134L661.645 129.756V318.731V389.598H672.942V389.084C672.942 358.737 697.542 334.136 727.889 334.136C758.236 334.136 782.836 358.737 782.836 389.084V389.598H865V246.84L799.268 144.134Z" fill="url(#paint2_linear_2_2328)"/>
<path d="M865 302.3H853.703V328.489H865V302.3Z" fill="url(#paint3_linear_2_2328)"/>
<path d="M693.998 203.591V162.464C693.998 156.8 698.929 152.4 704.555 153.043L780.418 161.701C785.542 162.286 790.159 165.067 793.073 169.323L847.541 248.894H784.378L702.691 216.405C697.442 214.318 693.998 209.239 693.998 203.591Z" fill="url(#paint4_linear_2_2328)"/>
<path d="M728.018 250.691H691.044V254.927H728.018V250.691Z" fill="url(#paint5_linear_2_2328)"/>
<path d="M783.522 323.525H661.39V321.127H781.123V248.892H783.522V323.525Z" fill="#472300"/>
<path d="M798.207 143.437L786.392 163.375L788.453 164.597L800.268 144.659L798.207 143.437Z" fill="#472300"/>
<path d="M3.31885 382.415H219.789C219.262 385.481 218.998 388.621 218.998 391.832V395.762H3.31885V382.415Z" fill="url(#paint6_linear_2_2328)"/>
<path d="M307.907 422.194C325.906 404.195 325.905 375.014 307.907 357.016C289.909 339.017 260.728 339.017 242.729 357.016C224.731 375.014 224.731 404.195 242.729 422.194C260.728 440.192 289.909 440.192 307.907 422.194Z" fill="#472300"/>
<path d="M275.35 413.605C288.608 413.605 299.356 402.857 299.356 389.598C299.356 376.34 288.608 365.592 275.35 365.592C262.091 365.592 251.343 376.34 251.343 389.598C251.343 402.857 262.091 413.605 275.35 413.605Z" fill="url(#paint7_linear_2_2328)"/>
<path d="M284.08 389.598C284.08 394.42 280.172 398.329 275.35 398.329C270.529 398.329 266.62 394.42 266.62 389.598C266.62 384.777 270.529 380.868 275.35 380.868C280.172 380.868 284.08 384.777 284.08 389.598Z" fill="#472300"/>
<path d="M774.04 396.933C778.085 371.802 760.991 348.151 735.861 344.107C710.73 340.062 687.079 357.156 683.034 382.286C678.99 407.417 696.083 431.068 721.214 435.112C746.344 439.157 769.996 422.064 774.04 396.933Z" fill="#472300"/>
<path d="M728.489 413.605C741.748 413.605 752.496 402.857 752.496 389.598C752.496 376.34 741.748 365.592 728.489 365.592C715.231 365.592 704.482 376.34 704.482 389.598C704.482 402.857 715.231 413.605 728.489 413.605Z" fill="url(#paint8_linear_2_2328)"/>
<path d="M728.489 397.044C733.311 397.044 737.22 393.135 737.22 388.314C737.22 383.492 733.311 379.583 728.489 379.583C723.668 379.583 719.759 383.492 719.759 388.314C719.759 393.135 723.668 397.044 728.489 397.044Z" fill="#472300"/>
<defs>
<linearGradient id="paint0_linear_2_2328" x1="3.3183" y1="355.456" x2="661.642" y2="355.456" gradientUnits="userSpaceOnUse">
<stop stop-color="#FFC572"/>
<stop offset="1" stop-color="#D99226"/>
</linearGradient>
<linearGradient id="paint1_linear_2_2328" x1="332.205" y1="389.089" x2="661.642" y2="389.089" gradientUnits="userSpaceOnUse">
<stop stop-color="#FFC572"/>
<stop offset="1" stop-color="#D99226"/>
</linearGradient>
<linearGradient id="paint2_linear_2_2328" x1="661.645" y1="259.677" x2="865" y2="259.677" gradientUnits="userSpaceOnUse">
<stop stop-color="#FFC572"/>
<stop offset="1" stop-color="#D99226"/>
</linearGradient>
<linearGradient id="paint3_linear_2_2328" x1="853.703" y1="315.394" x2="865" y2="315.394" gradientUnits="userSpaceOnUse">
<stop stop-color="#FFC572"/>
<stop offset="1" stop-color="#D99226"/>
</linearGradient>
<linearGradient id="paint4_linear_2_2328" x1="772.354" y1="302.411" x2="770.043" y2="191.49" gradientUnits="userSpaceOnUse">
<stop stop-color="#D2DFEF"/>
<stop offset="0.3567" stop-color="#D9E3F0"/>
<stop offset="0.8722" stop-color="#ECEFF1"/>
<stop offset="1" stop-color="#F2F2F2"/>
</linearGradient>
<linearGradient id="paint5_linear_2_2328" x1="691.045" y1="252.809" x2="728.018" y2="252.809" gradientUnits="userSpaceOnUse">
<stop stop-color="#FFC572"/>
<stop offset="1" stop-color="#D99226"/>
</linearGradient>
<linearGradient id="paint6_linear_2_2328" x1="3.3185" y1="389.089" x2="219.788" y2="389.089" gradientUnits="userSpaceOnUse">
<stop stop-color="#FFC572"/>
<stop offset="1" stop-color="#D99226"/>
</linearGradient>
<linearGradient id="paint7_linear_2_2328" x1="251.343" y1="389.598" x2="299.357" y2="389.598" gradientUnits="userSpaceOnUse">
<stop stop-color="#E3BF60"/>
<stop offset="1" stop-color="#D0735D"/>
</linearGradient>
<linearGradient id="paint8_linear_2_2328" x1="704.481" y1="389.598" x2="752.496" y2="389.598" gradientUnits="userSpaceOnUse">
<stop stop-color="#E3C060"/>
<stop offset="1" stop-color="#D0725D"/>
</linearGradient>
</defs>
</svg>
