<svg width="941" height="1140" viewBox="0 0 941 1140" fill="none" xmlns="http://www.w3.org/2000/svg">
<path d="M281.35 174.493L275.768 189.703H660.24L654.661 174.493H281.35Z" fill="#9BC7A2"/>
<path d="M622.789 99.6997H313.219L281.35 174.493H654.661L622.789 99.6997Z" fill="#B2E1B9"/>
<path d="M682.413 192.142H252.204V1120.44H682.413V192.142Z" fill="#B2E1B9"/>
<path d="M252.901 244.657H204.208V257.31H252.901V244.657Z" fill="#99989D"/>
<path d="M252.901 477.832H204.208V490.485H252.901V477.832Z" fill="#99989D"/>
<path d="M221.784 231.877H140.074V509.749H221.784V231.877Z" fill="#DFD029"/>
<path d="M356.449 73.2068H343.515V99.7003H356.449V73.2068Z" fill="#99989D"/>
<path d="M589.524 73.2068H576.59V99.7003H589.524V73.2068Z" fill="#99989D"/>
<path d="M203.655 488.593L203.655 253.028H158.207L158.207 488.593H203.655Z" fill="white"/>
<path d="M153.86 242.119C153.86 244.591 151.856 246.592 149.388 246.592C146.916 246.592 144.915 244.588 144.915 242.119C144.915 239.65 146.919 237.647 149.388 237.647C151.856 237.647 153.86 239.647 153.86 242.119Z" fill="white"/>
<path d="M153.86 278.764C153.86 281.235 151.856 283.236 149.388 283.236C146.916 283.236 144.915 281.232 144.915 278.764C144.915 276.295 146.919 274.291 149.388 274.291C151.856 274.291 153.86 276.295 153.86 278.764Z" fill="white"/>
<path d="M153.86 315.41C153.86 317.882 151.856 319.883 149.388 319.883C146.916 319.883 144.915 317.879 144.915 315.41C144.915 312.939 146.919 310.938 149.388 310.938C151.856 310.935 153.86 312.939 153.86 315.41Z" fill="white"/>
<path d="M153.86 352.055C153.86 354.527 151.856 356.527 149.388 356.527C146.916 356.527 144.915 354.524 144.915 352.055C144.915 349.583 146.919 347.582 149.388 347.582C151.856 347.582 153.86 349.586 153.86 352.055Z" fill="white"/>
<path d="M153.86 388.703C153.86 391.172 151.856 393.175 149.388 393.175C146.916 393.175 144.915 391.172 144.915 388.703C144.915 386.231 146.919 384.23 149.388 384.23C151.856 384.227 153.86 386.231 153.86 388.703Z" fill="white"/>
<path d="M153.86 425.347C153.86 427.819 151.856 429.819 149.388 429.819C146.916 429.819 144.915 427.816 144.915 425.347C144.915 422.875 146.919 420.874 149.388 420.874C151.856 420.874 153.86 422.875 153.86 425.347Z" fill="white"/>
<path d="M153.86 461.991C153.86 464.463 151.856 466.464 149.388 466.464C146.916 466.464 144.915 464.46 144.915 461.991C144.915 459.522 146.919 457.519 149.388 457.519C151.856 457.519 153.86 459.522 153.86 461.991Z" fill="white"/>
<path d="M153.86 498.638C153.86 501.107 151.856 503.111 149.388 503.111C146.916 503.111 144.915 501.107 144.915 498.638C144.915 496.166 146.919 494.166 149.388 494.166C151.856 494.163 153.86 496.166 153.86 498.638Z" fill="white"/>
<path d="M211.703 246.592C214.173 246.592 216.175 244.589 216.175 242.119C216.175 239.649 214.173 237.647 211.703 237.647C209.233 237.647 207.23 239.649 207.23 242.119C207.23 244.589 209.233 246.592 211.703 246.592Z" fill="white"/>
<path d="M185.019 242.119C185.019 244.591 183.015 246.592 180.546 246.592C178.074 246.592 176.074 244.588 176.074 242.119C176.074 239.65 178.078 237.647 180.546 237.647C183.015 237.647 185.019 239.647 185.019 242.119Z" fill="white"/>
<path d="M211.703 283.236C214.173 283.236 216.175 281.234 216.175 278.764C216.175 276.293 214.173 274.291 211.703 274.291C209.233 274.291 207.23 276.293 207.23 278.764C207.23 281.234 209.233 283.236 211.703 283.236Z" fill="white"/>
<path d="M216.178 315.41C216.178 317.882 214.175 319.883 211.706 319.883C209.234 319.883 207.233 317.879 207.233 315.41C207.233 312.939 209.237 310.938 211.706 310.938C214.175 310.935 216.178 312.939 216.178 315.41Z" fill="white"/>
<path d="M216.178 352.055C216.178 354.527 214.175 356.527 211.706 356.527C209.234 356.527 207.233 354.524 207.233 352.055C207.233 349.583 209.237 347.582 211.706 347.582C214.175 347.582 216.178 349.586 216.178 352.055Z" fill="white"/>
<path d="M211.703 393.175C214.173 393.175 216.175 391.173 216.175 388.703C216.175 386.233 214.173 384.23 211.703 384.23C209.233 384.23 207.23 386.233 207.23 388.703C207.23 391.173 209.233 393.175 211.703 393.175Z" fill="white"/>
<path d="M211.703 429.819C214.173 429.819 216.175 427.817 216.175 425.347C216.175 422.877 214.173 420.874 211.703 420.874C209.233 420.874 207.23 422.877 207.23 425.347C207.23 427.817 209.233 429.819 211.703 429.819Z" fill="white"/>
<path d="M216.178 461.991C216.178 464.463 214.175 466.464 211.706 466.464C209.234 466.464 207.233 464.46 207.233 461.991C207.233 459.522 209.237 457.519 211.706 457.519C214.175 457.519 216.178 459.522 216.178 461.991Z" fill="white"/>
<path d="M216.178 498.638C216.178 501.107 214.175 503.111 211.706 503.111C209.234 503.111 207.233 501.107 207.233 498.638C207.233 496.166 209.237 494.166 211.706 494.166C214.175 494.163 216.178 496.166 216.178 498.638Z" fill="white"/>
<path d="M185.402 498.638C185.402 501.107 183.399 503.111 180.93 503.111C178.458 503.111 176.458 501.107 176.458 498.638C176.458 496.166 178.461 494.166 180.93 494.166C183.402 494.163 185.402 496.166 185.402 498.638Z" fill="white"/>
<path d="M615.47 1H321.017V73.2067H615.47V1Z" fill="white" stroke="white" stroke-width="2" stroke-miterlimit="10"/>
<path d="M168.172 289.247V260.156H176.07V271.52H186.524V260.156H194.422V289.247H186.524V277.883H176.07V289.247H168.172ZM195.436 322.702C195.436 325.94 194.806 328.672 193.547 330.898C192.287 333.114 190.587 334.794 188.447 335.94C186.307 337.077 183.921 337.645 181.288 337.645C178.637 337.645 176.241 337.072 174.101 335.926C171.97 334.771 170.275 333.085 169.016 330.869C167.766 328.644 167.141 325.921 167.141 322.702C167.141 319.463 167.766 316.736 169.016 314.52C170.275 312.294 171.97 310.614 174.101 309.477C176.241 308.331 178.637 307.758 181.288 307.758C183.921 307.758 186.307 308.331 188.447 309.477C190.587 310.614 192.287 312.294 193.547 314.52C194.806 316.736 195.436 319.463 195.436 322.702ZM187.311 322.702C187.311 320.959 187.079 319.491 186.615 318.298C186.16 317.096 185.483 316.186 184.584 315.571C183.694 314.946 182.595 314.633 181.288 314.633C179.981 314.633 178.878 314.946 177.979 315.571C177.088 316.186 176.411 317.096 175.947 318.298C175.493 319.491 175.266 320.959 175.266 322.702C175.266 324.444 175.493 325.917 175.947 327.119C176.411 328.312 177.088 329.222 177.979 329.847C178.878 330.462 179.981 330.77 181.288 330.77C182.595 330.77 183.694 330.462 184.584 329.847C185.483 329.222 186.16 328.312 186.615 327.119C187.079 325.917 187.311 324.444 187.311 322.702ZM168.646 362.52V356.156H193.93V362.52H185.18V385.247H177.396V362.52H168.646ZM170.731 433.247V404.156H191.697V410.52H178.628V415.52H190.617V421.883H178.628V426.883H191.64V433.247H170.731ZM171.746 481.247V452.156H179.644V474.883H191.405V481.247H171.746Z" fill="#404040"/>
<path d="M362.366 16.9287L368.192 28.7325L381.22 30.6242L371.795 39.814L374.019 52.7873L362.366 46.6618L350.716 52.7873L352.941 39.814L343.515 30.6242L356.54 28.7325L362.366 16.9287Z" fill="#DFD029"/>
<path d="M415.305 16.9287L421.131 28.7325L434.159 30.6242L424.731 39.814L426.958 52.7873L415.305 46.6618L403.652 52.7873L405.88 39.814L396.451 30.6242L409.479 28.7325L415.305 16.9287Z" fill="#DFD029"/>
<path d="M468.24 16.9287L474.066 28.7325L487.094 30.6242L477.669 39.814L479.893 52.7873L468.24 46.6618L456.59 52.7873L458.815 39.814L449.389 30.6242L462.417 28.7325L468.24 16.9287Z" fill="#DFD029"/>
<path d="M521.179 16.9287L527.006 28.7325L540.033 30.6242L530.605 39.814L532.832 52.7873L521.179 46.6618L509.527 52.7873L511.754 39.814L502.325 30.6242L515.353 28.7325L521.179 16.9287Z" fill="#DFD029"/>
<path d="M574.118 16.9287L579.941 28.7325L592.969 30.6242L583.543 39.814L585.768 52.7873L574.118 46.6618L562.465 52.7873L564.689 39.814L555.264 30.6242L568.292 28.7325L574.118 16.9287Z" fill="#DFD029"/>
<path d="M692.158 189.703H244.081V210.769H692.158V189.703Z" fill="#67B463"/>
<path d="M692.158 419.287H244.081V440.35H692.158V419.287Z" fill="#67B463"/>
<path d="M692.158 648.871H244.081V669.937H692.158V648.871Z" fill="#67B463"/>
<path d="M692.158 878.459H244.081V899.522H692.158V878.459Z" fill="#67B463"/>
<path d="M940.137 1117.99H0V1139.78H940.137V1117.99Z" fill="#717175"/>
<path d="M683.11 1099.72H252.901V1117.99H683.11V1099.72Z" fill="#67B463"/>
<path d="M526.918 978.842V1108.93H409.092V978.842H526.918ZM535.984 969.777H400.026V1117.99H535.984V969.777Z" fill="white"/>
<path d="M526.918 978.843H409.092V1117.99H526.918V978.843Z" fill="#B6DFEB"/>
<path d="M356.449 931.663H291.625V1059.35H356.449V931.663Z" fill="#B6DFEB"/>
<path d="M287.092 927.13V1063.88H360.982V927.13H287.092ZM351.916 987.137H329.312V936.196H351.916V987.137ZM318.762 936.196V987.137H296.158V936.196H318.762ZM296.158 1054.82V997.687H318.762V1054.82H296.158ZM329.312 1054.82V997.687H351.916V1054.82H329.312Z" fill="white"/>
<path d="M372.508 1059.35H275.566V1072.12H372.508V1059.35Z" fill="#3C6A37"/>
<path d="M472.652 1004.99H463.586V1117.99H472.652V1004.99Z" fill="white"/>
<path d="M533.506 1009.52V1000.46H406.632V1009.52H533.506Z" fill="white"/>
<path d="M548.473 914.111H387.536V960.716H548.473V914.111Z" fill="white"/>
<path d="M545.451 917.134V957.697H390.558V917.134H545.451ZM551.495 911.09H545.451H390.558H384.514V917.134V957.697V963.741H390.558H545.451H551.495V957.697V917.134V911.09Z" fill="white"/>
<path d="M408.139 949V922.818H415.247V933.045H424.656V922.818H431.764V949H424.656V938.773H415.247V949H408.139ZM460.502 935.909C460.502 938.824 459.936 941.283 458.802 943.286C457.669 945.28 456.139 946.793 454.213 947.824C452.286 948.847 450.139 949.358 447.769 949.358C445.383 949.358 443.227 948.842 441.301 947.811C439.383 946.771 437.857 945.254 436.724 943.26C435.599 941.257 435.036 938.807 435.036 935.909C435.036 932.994 435.599 930.54 436.724 928.545C437.857 926.543 439.383 925.03 441.301 924.007C443.227 922.976 445.383 922.46 447.769 922.46C450.139 922.46 452.286 922.976 454.213 924.007C456.139 925.03 457.669 926.543 458.802 928.545C459.936 930.54 460.502 932.994 460.502 935.909ZM453.19 935.909C453.19 934.341 452.981 933.02 452.563 931.946C452.154 930.864 451.545 930.045 450.735 929.491C449.934 928.929 448.945 928.648 447.769 928.648C446.593 928.648 445.6 928.929 444.791 929.491C443.99 930.045 443.38 930.864 442.963 931.946C442.553 933.02 442.349 934.341 442.349 935.909C442.349 937.477 442.553 938.803 442.963 939.885C443.38 940.959 443.99 941.777 444.791 942.339C445.6 942.893 446.593 943.17 447.769 943.17C448.945 943.17 449.934 942.893 450.735 942.339C451.545 941.777 452.154 940.959 452.563 939.885C452.981 938.803 453.19 937.477 453.19 935.909ZM461.845 928.545V922.818H484.6V928.545H476.725V949H469.72V928.545H461.845ZM487.275 949V922.818H506.145V928.545H494.383V933.045H505.173V938.773H494.383V943.273H506.094V949H487.275ZM509.67 949V922.818H516.778V943.273H527.363V949H509.67Z" fill="#DFD029"/>
<path d="M280.039 1059.35V1020.28H367.071V1059.35" stroke="#434142" stroke-width="1.1049" stroke-miterlimit="10"/>
<path d="M289.434 1020.28V1059.35" stroke="#434142" stroke-width="1.1049" stroke-miterlimit="10"/>
<path d="M301.014 1020.28V1059.35" stroke="#434142" stroke-width="1.1049" stroke-miterlimit="10"/>
<path d="M312.594 1020.28V1059.35" stroke="#434142" stroke-width="1.1049" stroke-miterlimit="10"/>
<path d="M324.174 1020.28V1059.35" stroke="#434142" stroke-width="1.1049" stroke-miterlimit="10"/>
<path d="M335.754 1020.28V1059.35" stroke="#434142" stroke-width="1.1049" stroke-miterlimit="10"/>
<path d="M347.331 1020.28V1059.35" stroke="#434142" stroke-width="1.1049" stroke-miterlimit="10"/>
<path d="M358.911 1020.28V1059.35" stroke="#434142" stroke-width="1.1049" stroke-miterlimit="10"/>
<path d="M647.88 931.663H583.056V1059.35H647.88V931.663Z" fill="#B6DFEB"/>
<path d="M578.523 927.13V1063.88H652.413V927.13H578.523ZM643.347 987.137H620.743V936.196H643.347V987.137ZM610.193 936.196V987.137H587.589V936.196H610.193ZM587.589 1054.82V997.687H610.193V1054.82H587.589ZM620.743 1054.82V997.687H643.347V1054.82H620.743Z" fill="white"/>
<path d="M663.939 1059.35H566.998V1072.12H663.939V1059.35Z" fill="#3C6A37"/>
<path d="M571.47 1059.35V1020.28H658.503V1059.35" stroke="#434142" stroke-width="1.0808" stroke-miterlimit="10"/>
<path d="M580.865 1020.28V1059.35" stroke="#434142" stroke-width="1.1049" stroke-miterlimit="10"/>
<path d="M592.446 1020.28V1059.35" stroke="#434142" stroke-width="1.1049" stroke-miterlimit="10"/>
<path d="M604.026 1020.28V1059.35" stroke="#434142" stroke-width="1.1049" stroke-miterlimit="10"/>
<path d="M615.606 1020.28V1059.35" stroke="#434142" stroke-width="1.1049" stroke-miterlimit="10"/>
<path d="M627.186 1020.28V1059.35" stroke="#434142" stroke-width="1.1049" stroke-miterlimit="10"/>
<path d="M638.763 1020.28V1059.35" stroke="#434142" stroke-width="1.1049" stroke-miterlimit="10"/>
<path d="M650.343 1020.28V1059.35" stroke="#434142" stroke-width="1.1049" stroke-miterlimit="10"/>
<path d="M308.85 927.13L307.435 948.632H318.181L318.653 927.13H308.85Z" fill="#3C6A37"/>
<path d="M299.05 927.13L296.693 948.632H307.436L308.85 927.13H299.05Z" fill="white"/>
<path d="M289.246 927.13L285.946 948.632H296.692L299.049 927.13H289.246Z" fill="#3C6A37"/>
<path d="M280.038 927.13L274.602 948.632H285.946L289.246 927.13H280.038Z" fill="white"/>
<path d="M372.507 948.632L367.071 927.13H357.866L361.166 948.632H372.507Z" fill="white"/>
<path d="M338.259 927.13L339.674 948.632H350.42L348.063 927.13H338.259Z" fill="white"/>
<path d="M357.866 927.13H348.063L350.42 948.632H361.166L357.866 927.13Z" fill="#3C6A37"/>
<path d="M328.456 927.13L328.928 948.632H339.674L338.259 927.13H328.456Z" fill="#3C6A37"/>
<path d="M318.653 927.13L318.181 948.632H328.927L328.456 927.13H318.653Z" fill="white"/>
<path d="M600.282 927.13L598.868 948.632H609.614L610.085 927.13H600.282Z" fill="#3C6A37"/>
<path d="M590.482 927.13L588.122 948.632H598.868L600.282 927.13H590.482Z" fill="white"/>
<path d="M580.678 927.13L577.378 948.632H588.121L590.481 927.13H580.678Z" fill="#3C6A37"/>
<path d="M571.471 927.13L566.034 948.632H577.379L580.679 927.13H571.471Z" fill="white"/>
<path d="M663.939 948.632L658.503 927.13H649.298L652.598 948.632H663.939Z" fill="white"/>
<path d="M629.691 927.13L631.106 948.632H641.852L639.495 927.13H629.691Z" fill="white"/>
<path d="M649.298 927.13H639.495L641.852 948.632H652.598L649.298 927.13Z" fill="#3C6A37"/>
<path d="M619.889 927.13L620.36 948.632H631.106L629.692 927.13H619.889Z" fill="#3C6A37"/>
<path d="M610.085 927.13L609.614 948.632H620.36L619.888 927.13H610.085Z" fill="white"/>
<path d="M647.88 706.238H583.056V833.924H647.88V706.238Z" fill="#B6DFEB"/>
<path d="M578.523 701.705V838.457H652.413V701.705H578.523ZM643.347 761.712H620.743V710.77H643.347V761.712ZM610.193 710.77V761.712H587.589V710.77H610.193ZM587.589 829.391V772.261H610.193V829.391H587.589ZM620.743 829.391V772.261H643.347V829.391H620.743Z" fill="white"/>
<path d="M663.939 833.924H566.998V846.692H663.939V833.924Z" fill="#3C6A37"/>
<path d="M571.953 833.924V794.851H658.983V833.924" stroke="#434142" stroke-width="1.0808" stroke-miterlimit="10"/>
<path d="M581.349 794.851V833.924" stroke="#434142" stroke-width="1.1049" stroke-miterlimit="10"/>
<path d="M592.926 794.851V833.924" stroke="#434142" stroke-width="1.1049" stroke-miterlimit="10"/>
<path d="M604.507 794.851V833.924" stroke="#434142" stroke-width="1.1049" stroke-miterlimit="10"/>
<path d="M616.087 794.851V833.924" stroke="#434142" stroke-width="1.1049" stroke-miterlimit="10"/>
<path d="M627.666 794.851V833.924" stroke="#434142" stroke-width="1.1049" stroke-miterlimit="10"/>
<path d="M639.247 794.851V833.924" stroke="#434142" stroke-width="1.1049" stroke-miterlimit="10"/>
<path d="M650.824 794.851V833.924" stroke="#434142" stroke-width="1.1049" stroke-miterlimit="10"/>
<path d="M505.065 706.238H440.241V833.924H505.065V706.238Z" fill="#B6DFEB"/>
<path d="M435.708 701.705V838.457H509.598V701.705H435.708ZM500.532 761.712H477.928V710.77H500.532V761.712ZM467.379 710.77V761.712H444.774V710.77H467.379ZM444.774 829.391V772.261H467.379V829.391H444.774ZM477.928 829.391V772.261H500.532V829.391H477.928Z" fill="white"/>
<path d="M521.121 833.924H424.18V846.692H521.121V833.924Z" fill="#3C6A37"/>
<path d="M429.135 833.924V794.851H516.168V833.924" stroke="#434142" stroke-width="1.0808" stroke-miterlimit="10"/>
<path d="M438.531 794.851V833.924" stroke="#434142" stroke-width="1.1049" stroke-miterlimit="10"/>
<path d="M450.111 794.851V833.924" stroke="#434142" stroke-width="1.1049" stroke-miterlimit="10"/>
<path d="M461.691 794.851V833.924" stroke="#434142" stroke-width="1.1049" stroke-miterlimit="10"/>
<path d="M473.271 794.851V833.924" stroke="#434142" stroke-width="1.1049" stroke-miterlimit="10"/>
<path d="M484.848 794.851V833.924" stroke="#434142" stroke-width="1.1049" stroke-miterlimit="10"/>
<path d="M496.428 794.851V833.924" stroke="#434142" stroke-width="1.1049" stroke-miterlimit="10"/>
<path d="M508.008 794.851V833.924" stroke="#434142" stroke-width="1.1049" stroke-miterlimit="10"/>
<path d="M356.449 706.238H291.625V833.924H356.449V706.238Z" fill="#B6DFEB"/>
<path d="M287.092 701.705V838.457H360.982V701.705H287.092ZM351.916 761.712H329.312V710.77H351.916V761.712ZM318.762 710.77V761.712H296.158V710.77H318.762ZM296.158 829.391V772.261H318.762V829.391H296.158ZM329.312 829.391V772.261H351.916V829.391H329.312Z" fill="white"/>
<path d="M372.508 833.924H275.566V846.692H372.508V833.924Z" fill="#3C6A37"/>
<path d="M280.039 833.924V794.851H367.071V833.924" stroke="#434142" stroke-width="1.0808" stroke-miterlimit="10"/>
<path d="M289.434 794.851V833.924" stroke="#434142" stroke-width="1.1049" stroke-miterlimit="10"/>
<path d="M301.014 794.851V833.924" stroke="#434142" stroke-width="1.1049" stroke-miterlimit="10"/>
<path d="M312.594 794.851V833.924" stroke="#434142" stroke-width="1.1049" stroke-miterlimit="10"/>
<path d="M324.174 794.851V833.924" stroke="#434142" stroke-width="1.1049" stroke-miterlimit="10"/>
<path d="M335.754 794.851V833.924" stroke="#434142" stroke-width="1.1049" stroke-miterlimit="10"/>
<path d="M347.331 794.851V833.924" stroke="#434142" stroke-width="1.1049" stroke-miterlimit="10"/>
<path d="M358.911 794.851V833.924" stroke="#434142" stroke-width="1.1049" stroke-miterlimit="10"/>
<path d="M647.88 476.653H583.056V604.34H647.88V476.653Z" fill="#B6DFEB"/>
<path d="M578.523 472.12V608.873H652.413V472.12H578.523ZM643.347 532.127H620.743V481.186H643.347V532.127ZM610.193 481.186V532.127H587.589V481.186H610.193ZM587.589 599.807V542.677H610.193V599.807H587.589ZM620.743 599.807V542.677H643.347V599.807H620.743Z" fill="white"/>
<path d="M663.939 604.337H566.998V617.104H663.939V604.337Z" fill="#3C6A37"/>
<path d="M571.953 604.337V565.266H658.983V604.337" stroke="#434142" stroke-width="1.0808" stroke-miterlimit="10"/>
<path d="M581.349 565.266V604.337" stroke="#434142" stroke-width="1.1049" stroke-miterlimit="10"/>
<path d="M592.926 565.266V604.337" stroke="#434142" stroke-width="1.1049" stroke-miterlimit="10"/>
<path d="M604.507 565.266V604.337" stroke="#434142" stroke-width="1.1049" stroke-miterlimit="10"/>
<path d="M616.087 565.266V604.337" stroke="#434142" stroke-width="1.1049" stroke-miterlimit="10"/>
<path d="M627.666 565.266V604.337" stroke="#434142" stroke-width="1.1049" stroke-miterlimit="10"/>
<path d="M639.247 565.266V604.337" stroke="#434142" stroke-width="1.1049" stroke-miterlimit="10"/>
<path d="M650.824 565.266V604.337" stroke="#434142" stroke-width="1.1049" stroke-miterlimit="10"/>
<path d="M505.065 476.653H440.241V604.34H505.065V476.653Z" fill="#B6DFEB"/>
<path d="M435.708 472.12V608.873H509.598V472.12H435.708ZM500.532 532.127H477.928V481.186H500.532V532.127ZM467.379 481.186V532.127H444.774V481.186H467.379ZM444.774 599.807V542.677H467.379V599.807H444.774ZM477.928 599.807V542.677H500.532V599.807H477.928Z" fill="white"/>
<path d="M521.121 604.337H424.18V617.104H521.121V604.337Z" fill="#3C6A37"/>
<path d="M429.135 604.337V565.266H516.168V604.337" stroke="#434142" stroke-width="1.0808" stroke-miterlimit="10"/>
<path d="M438.531 565.266V604.337" stroke="#434142" stroke-width="1.1049" stroke-miterlimit="10"/>
<path d="M450.111 565.266V604.337" stroke="#434142" stroke-width="1.1049" stroke-miterlimit="10"/>
<path d="M461.691 565.266V604.337" stroke="#434142" stroke-width="1.1049" stroke-miterlimit="10"/>
<path d="M473.271 565.266V604.337" stroke="#434142" stroke-width="1.1049" stroke-miterlimit="10"/>
<path d="M484.848 565.266V604.337" stroke="#434142" stroke-width="1.1049" stroke-miterlimit="10"/>
<path d="M496.428 565.266V604.337" stroke="#434142" stroke-width="1.1049" stroke-miterlimit="10"/>
<path d="M508.008 565.266V604.337" stroke="#434142" stroke-width="1.1049" stroke-miterlimit="10"/>
<path d="M356.449 476.653H291.625V604.34H356.449V476.653Z" fill="#B6DFEB"/>
<path d="M287.092 472.12V608.873H360.982V472.12H287.092ZM351.916 532.127H329.312V481.186H351.916V532.127ZM318.762 481.186V532.127H296.158V481.186H318.762ZM296.158 599.807V542.677H318.762V599.807H296.158ZM329.312 599.807V542.677H351.916V599.807H329.312Z" fill="white"/>
<path d="M372.508 604.337H275.566V617.104H372.508V604.337Z" fill="#3C6A37"/>
<path d="M280.039 604.337V565.266H367.071V604.337" stroke="#434142" stroke-width="1.0808" stroke-miterlimit="10"/>
<path d="M289.434 565.266V604.337" stroke="#434142" stroke-width="1.1049" stroke-miterlimit="10"/>
<path d="M301.014 565.266V604.337" stroke="#434142" stroke-width="1.1049" stroke-miterlimit="10"/>
<path d="M312.594 565.266V604.337" stroke="#434142" stroke-width="1.1049" stroke-miterlimit="10"/>
<path d="M324.174 565.266V604.337" stroke="#434142" stroke-width="1.1049" stroke-miterlimit="10"/>
<path d="M335.754 565.266V604.337" stroke="#434142" stroke-width="1.1049" stroke-miterlimit="10"/>
<path d="M347.331 565.266V604.337" stroke="#434142" stroke-width="1.1049" stroke-miterlimit="10"/>
<path d="M358.911 565.266V604.337" stroke="#434142" stroke-width="1.1049" stroke-miterlimit="10"/>
<path d="M647.88 247.45H583.056V375.136H647.88V247.45Z" fill="#B6DFEB"/>
<path d="M578.523 242.917V379.669H652.413V242.917H578.523ZM643.347 302.924H620.743V251.983H643.347V302.924ZM610.193 251.983V302.924H587.589V251.983H610.193ZM587.589 370.604V313.473H610.193V370.604H587.589ZM620.743 370.604V313.473H643.347V370.604H620.743Z" fill="white"/>
<path d="M663.939 375.133H566.998V387.901H663.939V375.133Z" fill="#3C6A37"/>
<path d="M571.953 375.133V336.062H658.983V375.133" stroke="#434142" stroke-width="1.0808" stroke-miterlimit="10"/>
<path d="M581.349 336.062V375.133" stroke="#434142" stroke-width="1.1049" stroke-miterlimit="10"/>
<path d="M592.926 336.062V375.133" stroke="#434142" stroke-width="1.1049" stroke-miterlimit="10"/>
<path d="M604.507 336.062V375.133" stroke="#434142" stroke-width="1.1049" stroke-miterlimit="10"/>
<path d="M616.087 336.062V375.133" stroke="#434142" stroke-width="1.1049" stroke-miterlimit="10"/>
<path d="M627.666 336.062V375.133" stroke="#434142" stroke-width="1.1049" stroke-miterlimit="10"/>
<path d="M639.247 336.062V375.133" stroke="#434142" stroke-width="1.1049" stroke-miterlimit="10"/>
<path d="M650.824 336.062V375.133" stroke="#434142" stroke-width="1.1049" stroke-miterlimit="10"/>
<path d="M505.065 247.45H440.241V375.136H505.065V247.45Z" fill="#B6DFEB"/>
<path d="M435.708 242.917V379.669H509.598V242.917H435.708ZM500.532 302.924H477.928V251.983H500.532V302.924ZM467.379 251.983V302.924H444.774V251.983H467.379ZM444.774 370.604V313.473H467.379V370.604H444.774ZM477.928 370.604V313.473H500.532V370.604H477.928Z" fill="white"/>
<path d="M521.121 375.133H424.18V387.901H521.121V375.133Z" fill="#3C6A37"/>
<path d="M429.135 375.133V336.062H516.168V375.133" stroke="#434142" stroke-width="1.1049" stroke-miterlimit="10"/>
<path d="M438.531 336.062V375.133" stroke="#434142" stroke-width="1.1049" stroke-miterlimit="10"/>
<path d="M450.111 336.062V375.133" stroke="#434142" stroke-width="1.1049" stroke-miterlimit="10"/>
<path d="M461.691 336.062V375.133" stroke="#434142" stroke-width="1.1049" stroke-miterlimit="10"/>
<path d="M473.271 336.062V375.133" stroke="#434142" stroke-width="1.1049" stroke-miterlimit="10"/>
<path d="M484.848 336.062V375.133" stroke="#434142" stroke-width="1.1049" stroke-miterlimit="10"/>
<path d="M496.428 336.062V375.133" stroke="#434142" stroke-width="1.1049" stroke-miterlimit="10"/>
<path d="M508.008 336.062V375.133" stroke="#434142" stroke-width="1.1049" stroke-miterlimit="10"/>
<path d="M356.449 247.45H291.625V375.136H356.449V247.45Z" fill="#B6DFEB"/>
<path d="M287.092 242.917V379.669H360.982V242.917H287.092ZM351.916 302.924H329.312V251.983H351.916V302.924ZM318.762 251.983V302.924H296.158V251.983H318.762ZM296.158 370.604V313.473H318.762V370.604H296.158ZM329.312 370.604V313.473H351.916V370.604H329.312Z" fill="white"/>
<path d="M372.508 375.133H275.566V387.901H372.508V375.133Z" fill="#3C6A37"/>
<path d="M280.039 375.133V336.062H367.071V375.133" stroke="#434142" stroke-width="1.0808" stroke-miterlimit="10"/>
<path d="M289.434 336.062V375.133" stroke="#434142" stroke-width="1.1049" stroke-miterlimit="10"/>
<path d="M301.014 336.062V375.133" stroke="#434142" stroke-width="1.1049" stroke-miterlimit="10"/>
<path d="M312.594 336.062V375.133" stroke="#434142" stroke-width="1.1049" stroke-miterlimit="10"/>
<path d="M324.174 336.062V375.133" stroke="#434142" stroke-width="1.1049" stroke-miterlimit="10"/>
<path d="M335.754 336.062V375.133" stroke="#434142" stroke-width="1.1049" stroke-miterlimit="10"/>
<path d="M347.331 336.062V375.133" stroke="#434142" stroke-width="1.1049" stroke-miterlimit="10"/>
<path d="M358.911 336.062V375.133" stroke="#434142" stroke-width="1.1049" stroke-miterlimit="10"/>
<path d="M389.15 159.396H324.035V128.992H389.15V159.396ZM330.082 153.352H383.109V135.036H330.082V153.352Z" fill="white"/>
<path d="M505.827 159.396H440.713V128.992H505.827V159.396ZM446.757 153.352H499.783V135.036H446.757V153.352Z" fill="white"/>
<path d="M619.483 159.396H554.369V128.992H619.483V159.396ZM560.413 153.352H613.439V135.036H560.413V153.352Z" fill="white"/>
<path d="M404.625 730.108H379.509V744.607H404.625V730.108Z" fill="#67B463"/>
<path d="M417.181 744.607H392.065V759.107H417.181V744.607Z" fill="#67B463"/>
<path d="M404.625 268.857H379.509V283.357H404.625V268.857Z" fill="#67B463"/>
<path d="M417.181 283.357H392.065V297.856H417.181V283.357Z" fill="#67B463"/>
<path d="M390.558 542.676H415.674V528.177H390.558V542.676Z" fill="#67B463"/>
<path d="M377.999 557.177H403.115V542.678H377.999V557.177Z" fill="#67B463"/>
<path d="M554.753 506.133H529.637V520.632H554.753V506.133Z" fill="#67B463"/>
<path d="M567.309 520.635H542.194V535.135H567.309V520.635Z" fill="#67B463"/>
<path d="M539.175 780.351H564.29V765.851H539.175V780.351Z" fill="#67B463"/>
<path d="M526.615 794.852H551.731V780.353H526.615V794.852Z" fill="#67B463"/>
<path d="M535.916 311.991H561.031V297.492H535.916V311.991Z" fill="#67B463"/>
<path d="M523.359 326.492H548.475V311.993H523.359V326.492Z" fill="#67B463"/>
<path d="M266.703 1026.25H252.204V1040.75H266.703V1026.25Z" fill="#67B463"/>
<path d="M266.703 919.881H252.204V934.38H266.703V919.881Z" fill="#67B463"/>
<path d="M682.412 962.527H667.913V977.027H682.412V962.527Z" fill="#67B463"/>
<path d="M682.412 1072.12H667.913V1086.62H682.412V1072.12Z" fill="#67B463"/>
<path d="M667.913 811.623H682.413V797.124H667.913V811.623Z" fill="#67B463"/>
<path d="M667.913 705.251H682.413V690.752H667.913V705.251Z" fill="#67B463"/>
<path d="M252.205 747.899H266.705V733.399H252.205V747.899Z" fill="#67B463"/>
<path d="M252.205 857.488H266.705V842.989H252.205V857.488Z" fill="#67B463"/>
<path d="M266.703 565.68H252.204V580.179H266.703V565.68Z" fill="#67B463"/>
<path d="M266.703 459.307H252.204V473.806H266.703V459.307Z" fill="#67B463"/>
<path d="M682.412 501.956H667.913V516.455H682.412V501.956Z" fill="#67B463"/>
<path d="M682.412 611.544H667.913V626.043H682.412V611.544Z" fill="#67B463"/>
<path d="M668.612 340.43H683.112V325.931H668.612V340.43Z" fill="#67B463"/>
<path d="M668.612 234.055H683.112V219.556H668.612V234.055Z" fill="#67B463"/>
<path d="M252.901 276.703H267.4V262.203H252.901V276.703Z" fill="#67B463"/>
<path d="M252.901 386.292H267.4V371.793H252.901V386.292Z" fill="#67B463"/>
<path d="M639.243 99.6998H301.014V112.377H639.243V99.6998Z" fill="#67B463"/>
<path d="M192.819 1071.85C192.625 1071.85 192.438 1071.87 192.245 1071.88C189.909 1062.47 181.429 1055.48 171.296 1055.48C167.298 1055.48 163.566 1056.58 160.354 1058.48C155.474 1049.78 146.172 1043.89 135.483 1043.89C125.55 1043.89 116.814 1048.97 111.71 1056.67C109.5 1055.91 107.14 1055.48 104.674 1055.48C93.8951 1055.48 84.9863 1063.38 83.3575 1073.7C80.9702 1072.52 78.2957 1071.85 75.4551 1071.85C65.5612 1071.85 57.5439 1079.87 57.5439 1089.76C57.5439 1099.65 65.5642 1107.67 75.4551 1107.67C83.5267 1107.67 90.3443 1102.33 92.5866 1094.99C96.0376 1097.33 100.196 1098.69 104.674 1098.69C109.461 1098.69 113.87 1097.11 117.454 1094.48C122.368 1098.49 128.642 1100.91 135.483 1100.91C143.504 1100.91 150.738 1097.58 155.918 1092.25C159.837 1096.22 165.274 1098.69 171.293 1098.69C173.234 1098.69 175.101 1098.41 176.89 1097.93C179.861 1103.71 185.871 1107.67 192.816 1107.67C202.71 1107.67 210.73 1099.64 210.73 1089.75C210.733 1079.86 202.713 1071.85 192.819 1071.85Z" fill="#70A63B"/>
<path d="M216.266 1092.65H52.0137V1117.99H216.266V1092.65Z" fill="#B2E1B9"/>
<path d="M216.266 1092.65H52.0137V1097H216.266V1092.65Z" fill="#9BC7A2"/>
<path d="M231.174 1084.21H37.1096V1092.65H231.174V1084.21Z" fill="#67B463"/>
<path d="M860.928 1071.85C860.735 1071.85 860.548 1071.87 860.354 1071.88C858.018 1062.47 849.538 1055.48 839.406 1055.48C835.408 1055.48 831.676 1056.58 828.463 1058.48C823.58 1049.78 814.281 1043.89 803.593 1043.89C793.66 1043.89 784.923 1048.97 779.819 1056.67C777.61 1055.91 775.25 1055.48 772.784 1055.48C762.004 1055.48 753.096 1063.38 751.467 1073.7C749.08 1072.52 746.405 1071.85 743.564 1071.85C733.671 1071.85 725.65 1079.87 725.65 1089.76C725.65 1099.65 733.671 1107.67 743.564 1107.67C751.636 1107.67 758.454 1102.33 760.696 1094.99C764.147 1097.33 768.305 1098.69 772.784 1098.69C777.571 1098.69 781.98 1097.11 785.564 1094.48C790.477 1098.49 796.751 1100.91 803.593 1100.91C811.613 1100.91 818.848 1097.58 824.03 1092.25C827.947 1096.22 833.386 1098.69 839.406 1098.69C841.346 1098.69 843.214 1098.41 845.003 1097.93C847.976 1103.71 853.984 1107.67 860.928 1107.67C870.822 1107.67 878.839 1099.64 878.839 1089.75C878.842 1079.86 870.822 1071.85 860.928 1071.85Z" fill="#70A63B"/>
<path d="M884.376 1092.65H720.12V1117.99H884.376V1092.65Z" fill="#B2E1B9"/>
<path d="M899.28 1084.21H705.216V1092.65H899.28V1084.21Z" fill="#67B463"/>
<path d="M884.376 1092.65H720.12V1097H884.376V1092.65Z" fill="#9BC7A2"/>
<path d="M159.04 878.459H148.678V1117.99H159.04V878.459Z" fill="#99989D"/>
<path d="M163.881 1048.42H143.839V1118H163.881V1048.42Z" fill="#717175"/>
<path d="M169.006 1106.02H138.714V1117.99H169.006V1106.02Z" fill="#5B5B5F"/>
<path d="M153.86 885.763C161.232 885.763 167.208 879.787 167.208 872.415C167.208 865.043 161.232 859.067 153.86 859.067C146.488 859.067 140.512 865.043 140.512 872.415C140.512 879.787 146.488 885.763 153.86 885.763Z" fill="white"/>
<path d="M163.881 882.476H143.839V895.506H163.881V882.476Z" fill="#5B5B5F"/>
<path d="M790.97 878.459H780.608V1117.99H790.97V878.459Z" fill="#99989D"/>
<path d="M795.811 1048.42H775.77V1118H795.811V1048.42Z" fill="#717175"/>
<path d="M800.936 1106.02H770.644V1117.99H800.936V1106.02Z" fill="#5B5B5F"/>
<path d="M785.79 885.763C793.162 885.763 799.138 879.787 799.138 872.415C799.138 865.043 793.162 859.067 785.79 859.067C778.418 859.067 772.442 865.043 772.442 872.415C772.442 879.787 778.418 885.763 785.79 885.763Z" fill="white"/>
<path d="M795.811 882.476H775.77V895.506H795.811V882.476Z" fill="#5B5B5F"/>
<path d="M383.109 135.036H330.082V153.352H383.109V135.036Z" fill="#B6DFEB"/>
<path d="M499.783 135.036H446.757V153.352H499.783V135.036Z" fill="#B6DFEB"/>
<path d="M613.439 135.036H560.413V153.352H613.439V135.036Z" fill="#B6DFEB"/>
<path d="M682.37 210.766H252.204V216.061H682.37V210.766Z" fill="#9BC7A2"/>
<path d="M682.37 440.353H252.204V445.648H682.37V440.353Z" fill="#9BC7A2"/>
<path d="M682.37 669.938H252.204V675.232H682.37V669.938Z" fill="#9BC7A2"/>
<path d="M682.37 899.525H252.204V904.819H682.37V899.525Z" fill="#9BC7A2"/>
<path d="M372.508 387.904H275.566V393.175H372.508V387.904Z" fill="#9BC7A2"/>
<path d="M521.121 387.904H424.18V393.175H521.121V387.904Z" fill="#9BC7A2"/>
<path d="M664.556 387.904H567.615V393.175H664.556V387.904Z" fill="#9BC7A2"/>
<path d="M372.508 617.104H275.566V622.375H372.508V617.104Z" fill="#9BC7A2"/>
<path d="M521.121 617.104H424.18V622.375H521.121V617.104Z" fill="#9BC7A2"/>
<path d="M663.939 617.104H566.998V622.375H663.939V617.104Z" fill="#9BC7A2"/>
<path d="M372.508 846.691H275.566V851.962H372.508V846.691Z" fill="#9BC7A2"/>
<path d="M521.121 846.691H424.18V851.962H521.121V846.691Z" fill="#9BC7A2"/>
<path d="M663.939 846.691H566.998V851.962H663.939V846.691Z" fill="#9BC7A2"/>
<path d="M372.508 1072.12H275.566V1077.39H372.508V1072.12Z" fill="#9BC7A2"/>
<path d="M663.939 1072.12H566.998V1077.39H663.939V1072.12Z" fill="#9BC7A2"/>
</svg>
